{
  "asset": {
    "version": "2.0",
    "generator": "GLTFExporter"
  },
  "scenes": [
    {
      "name": "Scene",
      "nodes": [
        1
      ]
    }
  ],
  "scene": 0,
  "nodes": [
    {
      "matrix": [
        2.24,
        0,
        0,
        0,
        0,
        2.24,
        0,
        0,
        0,
        0,
        2.24,
        0,
        2.652593,
        49.816592,
        52.097977,
        1
      ],
      "name": "pSphere1",
      "mesh": 0
    },
    {
      "matrix": [
        1.1,
        0,
        0,
        0,
        0,
        1.1,
        0,
        0,
        0,
        0,
        1.1,
        0,
        37.398936,
        -46.581958,
        -11.028916,
        1
      ],
      "name": "NEWNEW_QIU.OBJ",
      "children": [
        0
      ]
    }
  ],
  "bufferViews": [
    {
      "buffer": 0,
      "byteOffset": 0,
      "byteLength": 62640,
      "target": 34962,
      "byteStride": 12
    },
    {
      "buffer": 0,
      "byteOffset": 62640,
      "byteLength": 62640,
      "target": 34962,
      "byteStride": 12
    },
    {
      "buffer": 0,
      "byteOffset": 125280,
      "byteLength": 41760,
      "target": 34962,
      "byteStride": 8
    }
  ],
  "buffers": [
    {
      "byteLength": 167040,
      "uri": "data:application/octet-stream;base64,"
    }
  ],
  "accessors": [
    {
      "bufferView": 0,
      "componentType": 5126,
      "count": 5220,
      "max": [
        86.78533172607422,
        86.78533172607422,
        86.30992889404297
      ],
      "min": [
        -86.78536987304688,
        -86.78533172607422,
        -86.30998229980469
      ],
      "type": "VEC3"
    },
    {
      "bufferView": 1,
      "componentType": 5126,
      "count": 5220,
      "max": [
        1,
        1,
        0.994521975517273
      ],
      "min": [
        -1,
        -1,
        -0.994521975517273
      ],
      "type": "VEC3"
    },
    {
      "bufferView": 2,
      "componentType": 5126,
      "count": 5220,
      "max": [
        1,
        1
      ],
      "min": [
        0,
        0
      ],
      "type": "VEC2"
    }
  ],
  "materials": [
    {
      "pbrMetallicRoughness": {
        "baseColorFactor": [
          0.6823529411764706,
          0.9176470588235294,
          0.9686274509803922,
          1
        ],
        "metallicFactor": 0,
        "roughnessFactor": 0.9,
        "baseColorTexture": {
          "index": 0
        }
      },
      "extensions": {
        "KHR_materials_unlit": {}
      }
    }
  ],
  "textures": [
    {
      "sampler": 0,
      "source": 0
    }
  ],
  "samplers": [
    {
      "magFilter": 9729,
      "minFilter": 9987,
      "wrapS": 33071,
      "wrapT": 33071
    }
  ],
  "images": [
    {
      "mimeType": "image/png",
      "uri": "data:image/png;base64,"
    }
  ],
  "meshes": [
    {
      "primitives": [
        {
          "mode": 4,
          "attributes": {
            "POSITION": 0,
            "NORMAL": 1,
            "TEXCOORD_0": 2
          },
          "material": 0
        }
      ]
    }
  ],
  "extensionsUsed": [
    "KHR_materials_unlit"
  ]
}