<?xml version="1.0" standalone="no"?>
<!DOCTYPE svg PUBLIC "-//W3C//DTD SVG 1.1//EN" "http://www.w3.org/Graphics/SVG/1.1/DTD/svg11.dtd" >
<!--
2013-9-30: Created.
-->
<svg>
<metadata>
Created by iconfont
</metadata>
<defs>

<font id="iconfont" horiz-adv-x="1024" >
  <font-face
    font-family="iconfont"
    font-weight="500"
    font-stretch="normal"
    units-per-em="1024"
    ascent="896"
    descent="-128"
  />
    <missing-glyph />
    
    <glyph glyph-name="ai-eye" unicode="&#58988;" d="M1023.997 384.169c0-99.79-211.129-312.67-511.999-312.67-293.211 0-511.998 209.376-511.998 312.67 0 103.279 219.73 312.334 511.999 312.334 303.234-0.001 512.071-209.057 511.999-312.335v0.001zM512.45 639.471c-136.266 0-246.73-114.384-246.73-255.471 0-141.089 110.463-255.471 246.729-255.471 136.307 0 246.774 114.383 246.774 255.471-0 141.087-110.467 255.471-246.773 255.471v0zM511.999 547.099c-86.778 0-157.126-72.827-157.126-162.673 0-89.836 70.348-162.677 157.126-162.677s157.097 72.841 157.097 162.677c0 89.847-70.32 162.673-157.097 162.673v0z"  horiz-adv-x="1024" />

    
    <glyph glyph-name="rengong" unicode="&#58913;" d="M718.43750027 295.96875027c-35.859375 30.375-71.78906223 48.515625-119.67187554 60.75 71.78906223 42.46874973 119.67187473 121.35937473 119.67187554 206.36718723C718.43750027 696.609375 610.71875 805.875 479.09375 805.875 347.46875 805.875 239.74999973 702.65625027 239.74999973 569.13281277c0-91.05468777 47.81250027-163.82812527 119.67187554-206.36718804-155.60156277-48.515625-263.32031223-194.2734375-269.29687527-364.21874946 0-24.2578125 11.95312527-36.42187527 29.953125-36.42187527 17.9296875 0 29.88281277 12.16406277 29.88281277 30.375 5.97656223 182.10937473 149.62499973 327.796875 329.0625 327.796875 71.85937527 0 143.6484375-24.32812473 197.57812446-66.79687527l41.83593804 42.46875054zM299.65624973 569.13281277c0 103.21874973 77.76562527 182.10937473 179.5078125 182.10937473 101.74218723 0 179.5078125-78.890625 179.5078125-182.10937473 0-103.21874973-77.76562527-182.10937473-179.5078125-182.10937554-101.74218723 0-179.5078125 78.890625-179.5078125 182.10937554z m484.66406277-467.36718777c11.95312527-36.42187527 23.90624973-72.84374973 23.90624973-109.265625 0-18.28125027 12.0234375-30.375 29.953125-30.375 17.99999973 0 29.953125 12.16406277 29.953125 30.375 0 54.6328125-17.9296875 109.265625-35.859375 157.78125l-47.95312473-48.515625z m-257.34375-85.0078125c-5.90625-6.04687527-11.95312527-12.16406277-11.95312527-24.2578125 0-18.28125027 11.95312527-30.375 29.953125-30.375 5.97656223 0 17.9296875 6.04687527 23.90625054 6.04687527l245.39062473 248.90625-41.90625027 48.515625-245.39062473-248.83593777zM933.875 356.71875027c0 18.21093723-11.95312527 30.30468777-29.953125 30.30468696-5.97656223 0-17.9296875-6.04687527-23.90624973-12.09374973l-71.78906304-72.84374973 41.90625027-42.53906277 77.76562527 78.96093723S933.875 350.60156277 933.875 356.71875027z"  horiz-adv-x="1024" />

    
    <glyph glyph-name="icon_baobiao" unicode="&#59149;" d="M274.6953125 67.59375h-52.734375c-42.1875 0-79.1015625 36.9140625-79.1015625 79.1015625v580.078125C142.859375 768.9609375 179.7734375 805.875 221.9609375 805.875h474.609375c42.1875 0 79.1015625-36.9140625 79.1015625-79.1015625v-52.734375h-52.734375v52.734375c0 15.8203125-10.546875 26.3671875-26.3671875 26.3671875h-474.609375c-15.8203125 0-26.3671875-10.546875-26.3671875-26.3671875v-580.078125c0-15.8203125 10.546875-26.3671875 26.3671875-26.3671875h52.734375v-52.734375zM380.1640625 304.8984375c-5.2734375 0-10.546875 0-15.8203125 5.2734375-10.546875 10.546875-15.8203125 26.3671875-5.2734375 36.9140625l63.28125 68.5546875c26.3671875 31.640625 79.1015625 31.640625 105.46875 0l31.640625-31.640625c10.546875-10.546875 21.09375-10.546875 31.640625 0l137.109375 147.65625c10.546875 10.546875 26.3671875 10.546875 36.9140625 0 10.546875-10.546875 10.546875-26.3671875 0-36.9140625l-137.109375-147.65625c-26.3671875-31.640625-79.1015625-31.640625-110.7421875 0L496.1796875 384c-10.546875 5.2734375-26.3671875 5.2734375-31.640625 0L401.2578125 315.4453125c-5.2734375-5.2734375-15.8203125-10.546875-21.09375-10.546875zM749.3046875 120.328125h-369.140625c-15.8203125 0-26.3671875 10.546875-26.3671875 26.3671875s10.546875 26.3671875 26.3671875 26.3671875h369.140625c15.8203125 0 26.3671875-10.546875 26.3671875-26.3671875s-10.546875-26.3671875-26.3671875-26.3671875zM802.0390625-37.875h-474.609375c-42.1875 0-79.1015625 36.9140625-79.1015625 79.1015625v580.078125C248.328125 663.4921875 285.2421875 700.40625 327.4296875 700.40625h474.609375c42.1875 0 79.1015625-36.9140625 79.1015625-79.1015625v-580.078125c0-42.1875-36.9140625-79.1015625-79.1015625-79.1015625z m-474.609375 685.546875c-15.8203125 0-26.3671875-10.546875-26.3671875-26.3671875v-580.078125c0-15.8203125 10.546875-26.3671875 26.3671875-26.3671875h474.609375c15.8203125 0 26.3671875 10.546875 26.3671875 26.3671875v580.078125c0 15.8203125-10.546875 26.3671875-26.3671875 26.3671875h-474.609375z"  horiz-adv-x="1024" />

    
    <glyph glyph-name="weixing" unicode="&#59231;" d="M960.24 207.05c-18.01 3.5-35.36-8.28-38.83-26.25-20.79-107.56-103.26-189.89-205.21-204.89-18.11-2.66-30.63-19.5-27.97-37.61 2.42-16.47 16.57-28.32 32.74-28.32 1.61 0 3.24 0.11 4.87 0.36 129.77 19.09 234.52 122.71 260.64 257.88 3.48 17.97-8.26 35.35-26.24 38.83zM719.89 20.67c5.11 0 10.31 1.2 15.17 3.7 64.25 33.18 116 89.16 145.74 157.64 7.29 16.79-0.41 36.31-17.21 43.6-16.78 7.27-36.29-0.43-43.6-17.21-23.66-54.5-64.63-98.94-115.33-125.12-16.27-8.4-22.65-28.4-14.25-44.66 5.89-11.41 17.48-17.95 29.48-17.95zM312.62 355.55c-21.23 21.19-55.78 21.21-76.99-0.02L53.07 172.97c-10.29-10.29-15.97-23.96-15.97-38.52 0-14.54 5.66-28.22 15.96-38.51l104.58-104.58c10.61-10.62 24.55-15.91 38.5-15.91 13.94 0 27.88 5.3 38.51 15.91l182.57 182.57c21.23 21.23 21.23 55.77 0 77l-104.6 104.62zM196.13 46.61l-87.83 87.83 165.84 165.84 87.83-87.83-165.84-165.84zM643.92 477.7c10.29-10.29 23.97-15.97 38.53-15.97 14.54 0 28.22 5.68 38.5 15.96l182.57 182.56 0.02 0.01c21.2 21.23 21.2 55.78-0.02 76.99L798.93 841.84c-21.22 21.22-55.76 21.24-77 0L539.34 659.26c-21.2-21.23-21.2-55.78 0.02-76.99L643.92 477.7z m116.51 308.9l87.84-87.84-165.83-165.83-87.84 87.83L760.43 786.6zM596.09 181.31c-20.79 20.8-18.77 56.66 4.51 79.95l28.56 28.56c11.6 11.59 26.54 18.28 42.09 18.83 14.49 0.9 28.11-4.55 37.85-14.32 0.01-0.01 0.02-0.01 0.03-0.02l10.18-10.18c12.95-12.95 33.92-12.95 46.87 0 12.95 12.94 12.95 33.93 0 46.87L756 341.16c-0.01 0.01-0.01 0.02-0.02 0.03-0.02 0.02-0.04 0.03-0.06 0.05L623.06 474.11c-0.01 0.01-0.01 0.02-0.02 0.03-0.02 0.02-0.04 0.03-0.06 0.05l-85.92 85.92c-43.22 43.22-113.54 43.22-156.76 0l-49.99-49.99c-43.22-43.22-43.22-113.54 0-156.76l229.12-229.12a33.037 33.037 0 0 1 23.43-9.71c8.48 0 16.96 3.24 23.43 9.71 12.95 12.94 12.95 33.93 0 46.87l-10.2 10.2z m-13.8 155.39l-28.57-28.56c-15.36-15.36-25.55-33.65-31.65-52.8l-58.92 58.92c-20.79 20.8-18.77 56.66 4.51 79.95l28.56 28.56c11.6 11.59 26.54 18.28 42.09 18.83 14.33 0.82 28.09-4.55 37.85-14.32 0.01-0.01 0.02-0.01 0.03-0.02l58.83-58.83c-19.51-6.26-37.69-16.7-52.73-31.73z m-218.16 95.04c0 11.9 4.64 23.09 13.05 31.51l49.99 49.99c16.85 16.83 46.2 16.83 63.03 0l11.88-11.88c-19.51-6.25-37.69-16.69-52.72-31.73l-28.56-28.56c-15.36-15.36-25.56-33.64-31.66-52.79l-11.95 11.95c-8.43 8.41-13.06 19.61-13.06 31.51zM723.12 263.09c-12.94 12.94-33.93 12.94-46.87 0l-49.11-49.11c-12.94-12.94-12.94-33.93 0-46.87 12.94-12.94 33.93-12.94 46.87 0l49.11 49.11c12.94 12.94 12.94 33.92 0 46.87z"  horiz-adv-x="1024" />

    
    <glyph glyph-name="shujuchaxun" unicode="&#58932;" d="M925.5424 107.9296l60.928-60.928-36.2496-36.1984-61.1328 61.1328a128 128 0 1 0 36.4544 35.9936zM819.2 537.6H153.6v-409.6h512v-102.4H51.2V742.4h870.4v-409.6h-102.4V537.6zM256 435.2h460.8v-51.2H256V435.2z m0-153.6h307.2v-51.2H256v51.2z m563.2-179.2a76.8 76.8 0 1 1 0 153.6 76.8 76.8 0 0 1 0-153.6zM153.6 640v-51.2h204.8V640H153.6z"  horiz-adv-x="1024" />

    
    <glyph glyph-name="bumenguanli" unicode="&#58987;" d="M885.3 117.8l-22 12.7c-0.6 0.4-1 1.1-0.8 1.8 1.3 5.9 2 11.9 2 18.2 0 6.2-0.7 12.3-2 18.2-0.2 0.7 0.2 1.5 0.8 1.8l22 12.7c3.8 2.2 5.1 7.1 2.9 10.9l-16 27.7c-2.2 3.8-7.1 5.1-10.9 2.9l-22-12.7c-0.6-0.4-1.4-0.3-2 0.2-8.9 8.2-19.6 14.5-31.5 18.2-0.7 0.2-1.2 0.9-1.2 1.6v31.8c0 0.9-0.8 1.7-1.7 1.7h-44.6c-0.9 0-1.7-0.8-1.7-1.7V232c0-0.7-0.5-1.4-1.2-1.6-11.8-3.7-22.6-10-31.5-18.2-0.5-0.5-1.3-0.6-2-0.2l-22 12.7c-3.8 2.2-8.7 0.9-10.9-2.9l-16-27.7c-2.2-3.8-0.9-8.7 2.9-10.9l23.1-13.3c-1.5-6.2-2.3-12.7-2.3-19.4s0.8-13.2 2.3-19.4l-23-13.3c-3.8-2.2-5.1-7.1-2.9-10.9l16-27.7c2.2-3.8 7.1-5.1 10.9-2.9l23.1 13.4c9.1-8.6 20.1-15.2 32.4-19 0.7-0.2 1.2-0.9 1.2-1.6v-31.8c0-0.9 0.8-1.7 1.7-1.7H803c0.9 0 1.7 0.8 1.7 1.7v31.8c0 0.7 0.5 1.4 1.2 1.6 11.8 3.7 22.5 10 31.5 18.2 0.5 0.5 1.3 0.6 2 0.2l22-12.7c3.8-2.2 8.7-0.9 10.9 2.9l16 27.7c2.2 3.7 0.9 8.6-3 10.8z m-69.2 27l-0.3-1.8c-0.3-1.3-0.6-2.5-1-3.7-1.5-4.7-4-8.9-7.2-12.5-0.9-1-1.8-2-2.8-2.9-2.3-2.1-4.9-3.9-7.7-5.3-1.1-0.6-2.3-1.1-3.5-1.5l-1.8-0.6c-1.7-0.6-3.5-1-5.4-1.3s-3.7-0.4-5.7-0.4c-1 0-1.9 0-2.9 0.1-2.8 0.2-5.6 0.8-8.2 1.6-4.9 1.6-9.3 4.2-13 7.5-2.8 2.5-5.1 5.4-7 8.6-1.4 2.4-2.5 5-3.3 7.7-0.3 0.9-0.5 1.8-0.7 2.8-0.1 0.7-0.3 1.4-0.4 2-0.2 1.2-0.3 2.3-0.4 3.5 0 0.6-0.1 1.3-0.1 1.9s0 1.3 0.1 1.9c0.1 1.3 0.2 2.5 0.4 3.7l0.3 1.8c0.6 2.8 1.5 5.5 2.7 8 1.6 3.4 3.8 6.5 6.3 9.1 0.6 0.7 1.3 1.3 2 1.9 3.7 3.3 8.1 5.9 12.9 7.5 1.7 0.6 3.5 1 5.4 1.3 0.5 0.1 0.9 0.1 1.4 0.2 1.4 0.2 2.8 0.3 4.3 0.3 1.4 0 2.8-0.1 4.1-0.2l1.8-0.3c1.8-0.3 3.5-0.7 5.1-1.2 2.4-0.8 4.7-1.8 6.9-3.1s4.2-2.7 6-4.4c1.4-1.2 2.7-2.6 3.8-4 2.3-2.9 4.2-6.1 5.6-9.6 0.7-1.8 1.2-3.6 1.6-5.5l0.3-1.8c0.3-1.8 0.4-3.7 0.4-5.6 0.4-1.9 0.2-3.8 0-5.7zM736.9 308.5c8.3 10.3 6.7 25.4-3.7 33.7-28 22.5-58.7 38.8-91.1 48.6-1.5 0.4-1.6 2.5-0.2 3.1 97.2 43.6 148.2 172.4 57.3 290.8l-0.3 0.3c-145.3 111.5-306.2 9.4-306.2-129.6 0-71.9 43.1-133.9 104.8-161.6 1.4-0.6 1.3-2.7-0.2-3.1-14.2-4.3-28.1-9.8-41.7-16.7-34.5-17.4-65.5-42.2-92-73.7-56-66.6-85.8-155.8-83.2-250 0-0.4 0.2-0.8 0.4-1.1 21.1-23.1 47.4-8.5 47.4 12.2 0 161 108.3 292 241.5 292 47.7 0 93.8-16.8 133.4-48.7 10.3-8.2 25.4-6.6 33.8 3.8zM475.2 461.4C369.9 598.7 526.4 755.3 663.8 650c0.1-0.1 0.3-0.2 0.3-0.3 105.4-137.4-51.2-294-188.6-188.7-0.1 0.1-0.2 0.3-0.3 0.4zM351.7 382.7c13.3 0 24 10.7 24 24s-10.7 24-24 24h-2.3c-47.2 1.2-85.2 40-85.2 87.5 0 51.6 44.8 92.9 97.6 87 0.4 0 1 0.1 1.3 0.4 24.4 21.2 9.7 48.2-11.3 48.2-74.7 0-135.5-60.8-135.5-135.5 0-42.6 19.7-80.6 50.5-105.5 1-0.8 0.8-2.3-0.3-2.8-0.3-0.1-0.5-0.3-0.8-0.4-25.9-13.4-49.1-32.4-68.9-56.6-42.1-51.4-64.3-120.4-61.8-192.9 0-0.4 0.2-0.8 0.4-1.1 21.1-23.1 47.4-8.5 47.4 12.3 0 115.7 74.6 210 166.7 211.5 0.7-0.1 1.4-0.1 2.2-0.1z"  horiz-adv-x="1024" />

    
    <glyph glyph-name="zuzhijigou" unicode="&#58992;" d="M588.25 709.25v-118h-153.5v118h153.5m24 64h-201.5c-22.09 0-40-17.91-40-40v-166c0-22.09 17.91-40 40-40h201.5c22.09 0 40 17.91 40 40v166c0 22.09-17.91 40-40 40zM279.5 176.75v-118h-118v118h118m24 64h-166c-22.09 0-40-17.91-40-40v-166c0-22.09 17.91-40 40-40h166c22.09 0 40 17.91 40 40v166c0 22.09-17.91 40-40 40zM571 176.75v-118H453v118h118m24 64H429c-22.09 0-40-17.91-40-40v-166c0-22.09 17.91-40 40-40h166c22.09 0 40 17.91 40 40v166c0 22.09-17.91 40-40 40zM862.5 176.75v-118h-118v118h118m24 64h-166c-22.09 0-40-17.91-40-40v-166c0-22.09 17.91-40 40-40h166c22.09 0 40 17.91 40 40v166c0 22.09-17.91 40-40 40zM543.5 529.05h-64v-101.3h-228c-34.79 0-63-28.21-63-63v-153h64v132c0 11.05 8.95 20 20 20h207v-152h64v152h208c11.05 0 20-8.95 20-20v-132h64v153c0 34.79-28.21 63-63 63h-229v101.3z"  horiz-adv-x="1024" />

    
    <glyph glyph-name="dabaxinxi" unicode="&#59024;" d="M966.656 721.92H836.608V742.4c0 35.328-29.184 64.512-64.512 64.512H675.84c-35.328 0-64.512-29.184-64.512-64.512v-20.48H423.936V742.4c0 35.328-29.184 64.512-64.512 64.512h-96.256c-35.328 0-64.512-29.184-64.512-64.512v-20.48H80.896c-16.896 0-30.72-13.824-30.72-30.72S64 660.48 80.896 660.48h885.76c16.896 0 30.72 13.824 30.72 30.72s-13.824 30.72-30.72 30.72zM672.768 742.4c0 1.536 1.536 3.072 3.072 3.072h96.256c1.536 0 3.072-1.536 3.072-3.072v-16.384c0-2.048-1.024-3.072-2.56-3.072H675.84c-1.536 0-3.072 1.536-3.072 3.072V742.4z m-412.672 0c0 1.536 1.536 3.072 3.072 3.072h96.256c1.536 0 3.072-1.536 3.072-3.072v-16.384c0-2.048-1.536-3.072-3.072-3.072h-96.256c-1.536 0-3.072 1.536-3.072 3.072V742.4zM171.52 213.504v376.32c0 16.896-13.824 30.72-30.72 30.72s-30.72-13.824-30.72-30.72v-376.32c0-16.896 13.824-30.72 30.72-30.72s30.72 13.824 30.72 30.72z m192 0v376.32c0 16.896-13.824 30.72-30.72 30.72s-30.72-13.824-30.72-30.72v-376.32c0-16.896 13.824-30.72 30.72-30.72s30.72 13.824 30.72 30.72z m192 0v376.32c0 16.896-13.824 30.72-30.72 30.72s-30.72-13.824-30.72-30.72v-376.32c0-16.896 13.824-30.72 30.72-30.72s30.72 13.824 30.72 30.72z m192 0v376.32c0 16.896-13.824 30.72-30.72 30.72s-30.72-13.824-30.72-30.72v-376.32c0-16.896 13.824-30.72 30.72-30.72s30.72 13.824 30.72 30.72z m192 0v376.32c0 16.896-13.824 30.72-30.72 30.72s-30.72-13.824-30.72-30.72v-376.32c0-16.896 13.824-30.72 30.72-30.72s30.72 13.824 30.72 30.72z m-4.096-88.576c-1.024-0.512-89.6-42.496-159.232-1.024C678.4 181.248 551.424 128 546.304 125.44c0 0-0.512 0-0.512-0.512-1.024-0.512-117.76-52.736-214.016-1.024-124.416 67.072-241.664 2.56-246.784-0.512-14.848-8.192-19.968-27.136-11.776-41.984 8.192-14.848 27.136-19.968 41.984-11.776 1.024 0.512 92.16 51.2 187.392-0.512 42.496-23.04 86.528-30.208 126.464-30.208 74.24 0 134.144 26.112 141.312 29.184 4.608 2.048 105.472 41.984 174.08 1.536 98.304-57.856 212.48-3.584 217.6-1.024 15.36 7.168 21.504 25.6 14.336 40.96s-25.6 22.528-40.96 15.36zM935.424 17.408c-1.024-0.512-89.6-42.496-159.232-1.024-97.792 57.344-224.768 4.096-229.888 1.536 0 0-0.512 0-0.512-0.512-1.024-0.512-117.76-52.736-214.016-1.024-124.416 67.072-241.664 2.56-246.784-0.512-14.848-8.192-19.968-27.136-11.776-41.984 8.192-14.848 27.136-19.968 41.984-11.776 1.024 0.512 92.16 51.2 187.392-0.512 42.496-23.04 86.528-30.208 126.464-30.208 74.24 0 134.144 26.112 141.312 29.184 4.608 2.048 105.472 41.984 174.08 1.536 98.304-57.856 212.48-3.584 217.6-1.024 15.36 7.168 21.504 25.6 14.336 40.96s-25.6 22.528-40.96 15.36z"  horiz-adv-x="1024" />

    
    <glyph glyph-name="fenbutu" unicode="&#59573;" d="M257.024 442.56c51.712-83.648 124.16-152.576 176.32-202.048l9.92-9.472a99.456 99.456 0 0 1 137.28-0.128l8.576 8.128c49.472 46.848 123.776 117.504 177.024 203.52h81.216c31.36 0 59.072-20.288 68.48-50.176l104.832-332.352a71.808 71.808 0 0 0-50.368-91.008L608.64-125.504a71.744 71.744 0 0 0-61.504 12.224L371.52 19.84a71.808 71.808 0 0 1-60.8 12.416l-221.44-55.36A71.808 71.808 0 0 0 3.2 67.2L101.376 391.68c9.216 30.272 37.12 50.944 68.736 50.944zM512 895.808a250.624 250.624 0 0 0 250.56-250.56c0-153.408-151.104-290.816-228.992-364.8a31.296 31.296 0 0 0-43.2 0c-79.744 75.968-228.928 210.88-228.928 364.8A250.624 250.624 0 0 0 512 895.808z m0-156.48a94.08 94.08 0 1 1 2.56-188.16A94.08 94.08 0 0 1 512 739.328z"  horiz-adv-x="1024" />

    
    <glyph glyph-name="queshi" unicode="&#59200;" d="M480.170667 131.2c3.072 76.672 95.829333 121.898667 95.829333 156.8a64 64 0 0 1-128 0 32 32 0 1 0-64 0 128 128 0 0 0 256 0c0-70.741333-96.554667-88.448-95.829333-160h-0.170667a32 32 0 1 0-63.829333 3.2z m-289.621334-12.970667A224.085333 224.085333 0 0 0 229.546667 536.32a288.128 288.128 0 0 0 564.992 0 224.085333 224.085333 0 0 0 39.04-418.005333l-0.085334-0.042667a32 32 0 0 0-27.434666 57.813333A160 160 0 0 1 736 480a224 224 0 0 1-448 0 160 160 0 0 1-68.693333-304.597333 32 32 0 0 0-28.8-57.173334h0.042666zM512 64a32 32 0 1 0 0-64 32 32 0 0 0 0 64z"  horiz-adv-x="1024" />

    
    <glyph glyph-name="jianceyiqi" unicode="&#59112;" d="M710.997 839.3389999999999V896h-56.661v-56.661H369.664V896h-56.661v-56.661a256.683 256.683 0 0 1-256-256V184.65999999999997a256.683 256.683 0 0 1 256-256V-128h56.661v56.661h284.672V-128h56.661v56.661a256.683 256.683 0 0 1 256 256V583.3399999999999a256.683 256.683 0 0 1-256 256zM113.664 184.65999999999997V583.3399999999999a199.339 199.339 0 0 0 199.339 198.656v-56.662A85.333 85.333 0 0 1 227.669 640v-512a85.333 85.333 0 0 1 85.334-85.333v-56.662a199.339 199.339 0 0 0-199.339 198.656z m256 484.011A28.672 28.672 0 0 0 398.336 640v-512a28.672 28.672 0 0 0-28.672-28.672h-56.661A28.672 28.672 0 0 0 284.33 128V640a28.672 28.672 0 0 0 28.672 28.672z m0-682.667v56.662A85.333 85.333 0 0 1 454.997 128V640a85.333 85.333 0 0 1-85.333 85.333v56.662h284.672v-56.662A85.333 85.333 0 0 1 569.003 640v-512a85.333 85.333 0 0 1 85.333-85.333v-56.662z m341.333 682.667A28.672 28.672 0 0 0 739.67 640v-512a28.672 28.672 0 0 0-28.672-28.672h-56.661A28.672 28.672 0 0 0 625.664 128V640a28.672 28.672 0 0 0 28.672 28.672z m199.339-484.01a199.339 199.339 0 0 0-199.339-198.657v56.662A85.333 85.333 0 0 1 796.331 128V640a85.333 85.333 0 0 1-85.334 85.333v56.662a199.339 199.339 0 0 0 199.339-198.656z"  horiz-adv-x="1024" />

    
    <glyph glyph-name="leijishuju" unicode="&#58912;" d="M232.96 463.168l-166.4-78.464 209.472-93.888 2.304-0.768h-0.64l221.184-99.2a32 32 0 0 1 26.24 0l432.192 193.856-166.784 78.336-248.768-81.024a96 96 0 0 0-59.52 0L232.96 463.168zM144.192 492.16L58.944 519.872a64 64 0 0 0-6.4 119.232L472.704 827.52a96 96 0 0 0 78.592 0l420.16-188.416a64 64 0 0 0-6.4-119.232l-85.632-27.904 105.088-49.344a64 64 0 0 0-1.024-116.352l-81.92-36.736 82.944-38.912a64 64 0 0 0-1.024-116.352L551.296-59.52a96 96 0 0 0-78.592 0L40.384 134.4a64 64 0 0 0-1.152 116.288l82.88 39.04L40.384 326.4a64 64 0 0 0-1.152 116.288l104.96 49.472z m680.384-237.056l-273.28-122.56a96 96 0 0 0-78.592 0L199.04 255.168l-132.48-62.464 432.32-193.792a32 32 0 0 1 26.24 0l432.192 193.792-132.736 62.336z m-302.72 187.776l423.424 137.92-420.16 188.352a32 32 0 0 1-26.24 0L78.72 580.736l423.36-137.92a32 32 0 0 1 19.84 0z"  horiz-adv-x="1024" />

    
    <glyph glyph-name="jinrishuju" unicode="&#59550;" d="M254.5 81.2c57.1 0 103.5 46.4 103.5 103.5V411.5c0 57.1-46.4 103.5-103.5 103.5S151 468.6 151 411.5v-226.8c0-57.1 46.5-103.5 103.5-103.5zM221 411.5c0 18.5 15 33.5 33.5 33.5s33.5-15 33.5-33.5v-226.8c0-18.5-15-33.5-33.5-33.5s-33.5 15-33.5 33.5V411.5zM517 81.2c57.1 0 103.5 46.4 103.5 103.5V684c0 57.1-46.4 103.5-103.5 103.5S413.5 741.1 413.5 684v-499.4c0-57 46.4-103.4 103.5-103.4zM483.5 684c0 18.5 15 33.5 33.5 33.5s33.5-15 33.5-33.5v-499.4c0-18.5-15-33.5-33.5-33.5s-33.5 15-33.5 33.5V684zM779.5 81.2c57.1 0 103.5 46.4 103.5 103.5V555.5c0 57.1-46.4 103.5-103.5 103.5S676 612.6 676 555.5v-370.8c-0.1-57.1 46.4-103.5 103.5-103.5z m-33.6 474.3c0 18.5 15 33.5 33.5 33.5s33.5-15 33.5-33.5v-370.8c0-18.5-15-33.5-33.5-33.5s-33.5 15-33.5 33.5V555.5zM894.4 39.3H132.9c-19.3 0-35-15.7-35-35s15.7-35 35-35h761.5c19.3 0 35 15.7 35 35 0 19.4-15.7 35-35 35z"  horiz-adv-x="1024" />

    
    <glyph glyph-name="shijian" unicode="&#58930;" d="M512 896C228.324324 896 0 667.675676 0 384s228.324324-512 512-512c283.675676 0 512 228.324324 512 512C1017.081081 667.675676 788.756757 896 512 896z m0-947.891892C262.918919-51.891892 69.189189 141.837838 69.189189 384S262.918919 826.810811 512 826.810811c242.162162 0 442.810811-200.648649 442.810811-442.810811-6.918919-242.162162-200.648649-435.891892-442.810811-435.891892z m214.486486 408.216216H512V570.810811c0 6.918919-6.918919 13.837838-13.837838 13.837838h-41.513513c-6.918919 0-13.837838-6.918919-13.837838-13.837838v-269.837838c0-6.918919 6.918919-13.837838 13.837838-13.837838h269.837837c6.918919 0 13.837838 6.918919 13.837838 13.837838v34.594595c6.918919 6.918919 0 20.756757-13.837838 20.756756 6.918919 0 0 0 0 0z"  horiz-adv-x="1030" />

    
    <glyph glyph-name="fangan" unicode="&#59125;" d="M657.193298 407.041019c0 11.306643-9.514647 21.205289-20.223958 21.205289-24.19195 0-32.597265-21.162623-35.54126-38.997252l-0.511999-4.906657h35.925259c10.239979 0 20.351958 11.306643 20.351958 22.741286z m-274.260762 22.741286c-10.239979 0-20.223958-11.306643-20.223958-22.69862 0-11.434643 9.983979-22.741286 20.223958-22.741286h35.882591c-0.085333 2.645328-0.341333 4.693324-0.469332 5.717322-2.346662 14.847969-10.111979 39.679917-35.413259 39.679917z m93.141139-98.901128c2.133329-86.442487 3.327993-230.143521 3.327993-288.042066 0-0.597332 0-1.194664-0.128-1.706663h61.09854c0 0.511999-0.128 0.853332-0.128 1.322664 0 58.026546 1.237331 202.239579 3.327993 288.511398h-67.498526v-0.085333z m34.047929 390.399187h-0.981331c-88.191816-0.255999-170.879644-32.597265-232.788849-91.306476-62.549203-59.22121-96.981131-138.623711-96.981131-223.487535 0-95.231802 42.581245-183.082285 116.69309-240.980831 11.34931-8.789315 30.122604-36.693257 30.591936-124.330408h97.365131c0 0.597332-0.128 1.066664-0.128 1.663997 0 83.455826-1.49333 212.650224-3.327993 287.9994h-37.759921c-41.087914 0-75.733176 34.858594-75.733176 76.245174 0 41.215914 34.645261 76.202508 75.733176 76.202508 47.274568 0 81.919829-32.597265 90.325145-85.034489 0.341333-2.346662 0.725332-7.125318 1.109331-13.909305h71.167852c0.383999 6.314654 0.767998 10.709311 1.109331 13.09864 8.405316 51.967892 42.965244 84.266491 90.325145 84.266491 41.087914 0 75.733176-34.133262 75.733175-74.538512 0-41.215914-34.645261-76.202508-75.733175-76.202508h-37.759921c-1.834663-75.221177-3.327993-204.799573-3.327993-288.511398 0-0.426666 0-0.853332-0.128-1.279998h96.981131c0.383999 89.173148 19.19996 117.418422 30.591936 126.250404 75.263843 58.837211 116.69309 143.701034 116.693091 239.060835 0 84.863823-34.389262 164.266324-96.938465 223.487535-61.951871 58.709211-144.639699 91.178477-232.831515 91.306476zM326.825986-107.944575c0-11.09331 9.386647-20.095958 20.863956-20.095958h324.265991a20.522624 20.522624 0 0 1 20.82129 20.053291v95.615801H326.783319v-95.573134zM279.252752 876.586707L329.76998 896l61.439872-148.522357-50.517228-19.413293L279.252752 876.586707zM0 578.859327l21.503955 48.170567 151.423685-62.71987-21.503955-48.213233L0 578.901994z m28.586607-397.524505l-20.181291 48.725232 144.853031 55.637217 20.138625-48.725231L28.586607 181.334822zM681.897246 728.107016L631.465351 747.520309 692.734557 895.701334l50.517228-19.413293-61.311872-148.181025z m189.268939-211.967558l-21.503955 48.170566 152.789015 63.274535L1023.997867 579.456659l-152.789015-63.317201z m-21.674621-278.27142l20.181291 48.682565 153.642346-59.007877-20.138624-48.725232-153.685013 59.050544z"  horiz-adv-x="1024" />

    
    <glyph glyph-name="yujing" unicode="&#58908;" d="M882.63125001 198.71249999999998h-52.87500002V463.425c0 157.6125-114.975 288.16875001-265.66874999 312.975 0.16875001 1.575 0.84375001 3.0375 0.84375001 4.66875001C564.93125001 810.31875001 541.30625001 834 512 834c-29.25 0-52.93125001-23.68125001-52.93125001-52.93125001 0-1.63125001 0.7875-3.0375 0.95625001-4.66874999C309.3875 751.59375001 194.4125 621.09375001 194.4125 463.425v-264.7125H141.425c-29.25 0-52.93125001-23.68125001-52.93125001-52.93124999s23.68125001-52.875 52.93125001-52.875h741.15c29.25 0 52.875 23.68125001 52.875 52.875 0.05625001 29.25-23.625 52.93125001-52.81875001 52.93124999zM512-66c58.5 0 105.91875001 47.41875001 105.91875001 105.8625h-211.78125001C406.1375-18.581250009999962 453.55624999-66 512-66z"  horiz-adv-x="1024" />

    
    <glyph glyph-name="rise" unicode="&#58885;" d="M735.85 605.935c0-28.806-25.054-52.16-55.964-52.16-16.512 0-31.206 6.78-41.45 17.39l-0.153-0.134-70.318 72.835v-655.181c0-28.797-25.055-52.16-55.965-52.16-30.902 0-55.965 23.363-55.965 52.16v655.19l-70.327-72.844-0.153 0.134c-10.243-10.61-24.929-17.39-41.45-17.39-30.902 0-55.955 23.354-55.955 52.16 0 13.413 5.579 25.52 14.506 34.76l-0.143 0.134L470.397 814.69l0.153-0.118c10.235 10.594 24.938 17.39 41.45 17.39 16.512 0 31.197-6.797 41.44-17.39l0.153 0.117L721.487 640.83l-0.16-0.134c8.935-9.241 14.523-21.348 14.523-34.761z"  horiz-adv-x="1024" />

    
    <glyph glyph-name="chiping" unicode="&#62094;" d="M733.935 160.14999999999998c-28.806 0-52.16 25.054-52.16 55.964 0 16.512 6.78 31.206 17.39 41.44999999l-0.134 0.15300001 72.835 70.318-655.181 1e-8c-28.797 0-52.16 25.055-52.16 55.96499999 0 30.902 23.363 55.965 52.16 55.96499999l655.19 1e-8-72.844 70.327 0.134 0.153c-10.61 10.243-17.39 24.929-17.39 41.45 0 30.902 23.354 55.955 52.16 55.955 13.41300001 0 25.52-5.579 34.76-14.506l0.134 0.14300001L942.69 425.603l-0.118-0.153c10.594-10.23500001 17.39-24.93799999 17.38999999-41.45 0-16.512-6.797-31.197-17.38999999-41.44l0.117-0.153L768.83 174.51300000000003l-0.134 0.16c-9.241-8.93499999-21.348-14.523-34.761-14.523z"  horiz-adv-x="1024" />

    
    <glyph glyph-name="down" unicode="&#62093;" d="M288.15 162.06500000000005c0 28.806 25.054 52.16 55.964 52.16 16.512 0 31.206-6.78 41.44999999-17.39l0.15300001 0.134 70.318-72.835 1e-8 655.181c0 28.797 25.055 52.16 55.96499999 52.16 30.902 0 55.965-23.363 55.96499999-52.16l1e-8-655.19 70.327 72.844 0.153-0.134c10.243 10.61 24.929 17.39 41.45 17.39 30.902 0 55.955-23.354 55.955-52.16 0-13.41300001-5.579-25.52-14.506-34.76l0.14300001-0.134L553.603-46.690000000000055l-0.153 0.118c-10.23500001-10.594-24.93799999-17.39-41.45-17.38999999-16.512 0-31.197 6.797-41.44 17.38999999l-0.153-0.117L302.513 127.16999999999996l0.16 0.134c-8.93499999 9.241-14.523 21.348-14.523 34.761z"  horiz-adv-x="1024" />

    
    <glyph glyph-name="qushi" unicode="&#58934;" d="M105.54980469 181.11503905999996h151.80996094v-191.25527344H105.54892578V181.11503905999996z m231.50830078 196.08837891h155.6015625V-10.13671875h-155.6015625V377.20341797000003z m231.51445312-74.63671875h154.34033203v-312.70605469H568.57255859v312.70605469zM800.07910156 492.32695313h155.61035156V-10.13671875H800.07910156V492.32783203zM63.8 370.87792969l360.55107422 331.45576172 206.91914062-203.27958985 195.38085938 227.31855469-70.84423828 74.52861328h199.88789062V607.453125l-69.88886718 72.0140625-254.54179688-308.08652344-209.11640625 214.99453125L113.96972656 299.47382813 63.8 370.87792969z"  horiz-adv-x="1024" />

    
    <glyph glyph-name="wendang" unicode="&#58893;" d="M789.46304 46.94015999999999l-27.6992 0c0-56.79104-52.13696-110.3616-110.72-110.3616l-415.1808 0c-58.5728 0-110.70464 53.57056-110.70464 110.3616L125.1584 598.8864c0 56.81664 47.84128 109.6192 106.41408 109.6192l31.97952 0.768c0 56.82688 52.1472 110.3872 110.72 110.3872l332.16 0 193.72544-221.42976L900.15744 543.6928l0-386.3552C900.15744 100.52095999999995 848.03584 46.94015999999999 789.46304 46.94015999999999L789.46304 46.94015999999999zM264.20736 163.48159999999996L264.20736 657.4592l-30.97088-4.28032c-29.07136 0-52.74112-26.17856-52.74112-54.29248l0-551.94624c0-28.1088 26.30656-55.1936 55.36256-55.1936l415.1808 0c29.06112 0 55.39328 27.08992 55.39328 55.1936L374.272 46.94015999999999C315.6992 46.94015999999999 264.20736 106.97216000000003 264.20736 163.48159999999996L264.20736 163.48159999999996zM706.432 763.65824l0-0.04608 0-82.66752c0-28.65664 25.86112-82.05824 55.32672-82.05824l83.06688 0L706.432 763.65824 706.432 763.65824zM844.8256 543.6928l-83.06688 0c-58.94144 0-110.72 52.36224-110.72 109.68576 0 0-0.43008 47.52384 0 111.08864L374.272 764.4672c-29.0816 0-50.87744-26.14272-50.87744-54.43584l0-555.70432c0-28.30336 21.79584-52.18304 50.87744-52.18304l415.19104 0c29.05088 0 55.36256 27.07968 55.36256 55.1936L844.8256 543.6928 844.8256 543.6928zM706.432 239.83615999999995L457.30304 239.83615999999995c-15.29344 0-27.6992 12.34432-27.6992 27.55584 0 15.24736 12.41088 27.59168 27.6992 27.59168l249.13408 0c15.26272 0 27.66336-12.34432 27.66336-27.59168C734.10048 252.18048 721.69984 239.83615999999995 706.432 239.83615999999995L706.432 239.83615999999995zM706.432 377.67168000000004L457.30304 377.67168000000004c-15.29344 0-27.6992 12.34432-27.6992 27.58144 0 15.22176 12.41088 27.57632 27.6992 27.57632l249.13408 0c15.26272 0 27.66336-12.35456 27.66336-27.57632C734.10048 390.016 721.69984 377.67168000000004 706.432 377.67168000000004L706.432 377.67168000000004z"  horiz-adv-x="1024" />

    
    <glyph glyph-name="theme" unicode="&#58991;" d="M512 830.6c-327 0-448-285.2-448-445.1s116.3-448 438.5-448c0 0 80.1-1.4 80.1 70.6s-36 49-36 100.8c0 51.9 36 74.9 53.3 74.9 17.3 0 131.1-8.6 194.5 15.9 63.3 24.4 165.6 102.2 165.6 234.7 0 116.7-121 396.2-448 396.2zM238.9 384c-43 0-77.8 34.8-77.8 77.8s34.8 77.8 77.8 77.8 77.8-34.8 77.8-77.8c-0.1-43-34.9-77.8-77.8-77.8zM385.6 576.5c-43 0-77.8 34.8-77.8 77.8s34.8 77.8 77.8 77.8c42.9 0 77.8-34.8 77.8-77.8s-34.8-77.8-77.8-77.8zM635.1 576.5c-42.9 0-77.8 34.8-77.8 77.8s34.8 77.8 77.8 77.8c42.9 0 77.8-34.8 77.8-77.8s-34.8-77.8-77.8-77.8zM783.2 384c-42.9 0-77.8 34.8-77.8 77.8s34.8 77.8 77.8 77.8 77.8-34.8 77.8-77.8c0.1-43-34.8-77.8-77.8-77.8z"  horiz-adv-x="1024" />

    
    <glyph glyph-name="word" unicode="&#59158;" d="M616.746667 810.666667L896 548.096V42.666667a85.333333 85.333333 0 0 0-85.333333-85.333334H213.333333a85.333333 85.333333 0 0 0-85.333333 85.333334V725.333333a85.333333 85.333333 0 0 0 85.333333 85.333334h403.413334z m244.352-295.381334L581.802667 777.813333v-177.237333a85.333333 85.333333 0 0 1 85.333333-85.333333h193.962667z m-107.264-76.373333h-49.152l-79.488-227.157333-109.354667 227.114666h-13.226667l-110.506666-226.688-77.824 226.688H265.130667l113.749333-328.192h13.226667l117.12 239.36 114.858666-239.36h13.781334l115.968 328.192z"  horiz-adv-x="1024" />

    
    <glyph glyph-name="guizhangzhidu" unicode="&#58985;" d="M294.19695 572.894138L294.19695 572.894138zM165.86113203 670.9450514600001c0 35.67791074 33.04179756 60.20967744 73.65646055 60.20967745l642.58732617 0c13.27589912 0 24.03890156 13.95044122 24.03890156 25.61373369 0 11.66239248-10.76300244 21.11768262-24.03890156 21.11768261l-642.58732617 0c-67.12239112 0-121.73066631-47.97437344-121.73066631-106.94109375L117.78692627 98.62888153999995c0-58.96762031 54.60827519-106.94019463 121.73066631-106.94019462l666.62532773 0L906.14292119 606.2384220700001 239.51759346 606.2384220700001C198.90382959 606.2384220700001 165.86113203 635.2644424800001 165.86113203 670.9450514600001L165.86113203 670.9450514600001zM860.46828857 33.92315213999996L234.55385878 33.92315213999996c-41.09763604 0-74.53336641 28.88301709-74.53336639 64.39004385L160.02049238 583.15467276c20.70756035-13.63655479 46.545242-21.7427581 74.53336641-21.74275812l625.91442978 0L860.46828857 33.92315213999996 860.46828857 33.92315213999996zM831.06542393 696.72517266L271.22919278 696.72517266c-11.66329248 0-21.11678261-10.84484708-21.11678262-24.2187794 0-13.37573144 9.45349013-24.22057852 21.11678261-24.22057852l559.83623116 0c11.66329248 0 21.11678261 10.84484708 21.11678261 24.22057852C852.18220654 685.88032471 842.72781641 696.72517266 831.06542393 696.72517266L831.06542393 696.72517266zM388.79658213 440.46371748l360.9450791 0c12.97370391 0 23.48397773 10.84304883 23.48397773 24.2196794s-10.51117383 24.2196794-23.48397773 24.21967939L388.79658213 488.90307539c-12.96830742 0-23.48307862-10.84304883-23.48307861-24.2196794S375.82827471 440.46371748 388.79658213 440.46371748L388.79658213 440.46371748zM388.79658213 291.03812813l360.9450791-1e-8c12.97370391 0 23.48397773 10.27193555 23.48397773 22.94524336s-10.51117383 22.94614248-23.48397773 22.94614248L388.79658213 336.92951396c-12.96830742 0-23.48307862-10.27283467-23.48307861-22.94614248S375.82827471 291.03812813 388.79658213 291.03812813L388.79658213 291.03812813zM388.79658213 139.06186846000003l360.9450791 0c12.97370391 0 23.48397773 10.84394795 23.48397773 24.2196794s-10.51117383 24.2196794-23.48397773 24.21967938L388.79658213 187.50122637000004c-12.96830742 0-23.48307862-10.84394795-23.48307861-24.2196794S375.82827471 139.06186846000003 388.79658213 139.06186846000003L388.79658213 139.06186846000003zM290.90515273 440.46371748c13.3550455 0 24.22057852 10.86463388 24.22057852 24.22057851 0 13.3550455-10.86553301 24.2187794-24.22057852 24.2187794-13.3550455 0-24.2187794-10.86463388-24.21877939-24.2187794C266.68547334 451.32925049 277.55010723 440.46371748 290.90515273 440.46371748L290.90515273 440.46371748zM290.90515273 292.06433202999995c13.35594463 0 24.22057852 10.86463388 24.22057852 24.22057852 0 13.3550455-10.86463388 24.2187794-24.22057852 24.21877939-13.3550455 0-24.2187794-10.86463388-24.21877939-24.21877939C266.68637246 302.92896592 277.55010723 292.06433202999995 290.90515273 292.06433202999995L290.90515273 292.06433202999995zM292.70393281 139.16799637999998c13.35594463 0 24.22057852 10.86463388 24.22057852 24.22057852 0 13.3550455-10.86463388 24.2187794-24.22057852 24.2187794-13.3550455 0-24.2187794-10.86463388-24.21877939-24.2187794C268.48515342 150.03263027000003 279.34888731 139.16799637999998 292.70393281 139.16799637999998L292.70393281 139.16799637999998z"  horiz-adv-x="1024" />

    
    <glyph glyph-name="canshu" unicode="&#58890;" d="M231.10332031 593.8828125c-61.06201172 0-110.7421875-49.68017578-110.7421875-110.7421875s49.68017578-110.7421875 110.7421875-110.7421875 110.7421875 49.68017578 110.7421875 110.7421875-49.68017578 110.7421875-110.7421875 110.7421875zM231.10332031 439.8984375c-23.84384766 0-43.2421875 19.39833984-43.2421875 43.2421875s19.39833984 43.2421875 43.2421875 43.2421875 43.2421875-19.39833984 43.2421875-43.2421875-19.40185547-43.2421875-43.2421875-43.2421875zM231.10332031 621.3046875c20.97158203 0 37.96875 16.99716797 37.96875 37.96875v81.2109375c0 20.97158203-16.99716797 37.96875-37.96875 37.96875s-37.96875-16.99716797-37.96875-37.96875v-81.2109375c0-20.97158203 16.99716797-37.96875 37.96875-37.96875zM231.10332031 343.921875c-20.97158203 0-37.96875-16.99716797-37.96875-37.96875v-280.546875c0-20.97158203 16.99716797-37.96875 37.96875-37.96875s37.96875 16.99716797 37.96875 37.96875v280.546875c0 20.97158203-17.0015625 37.96875-37.96875 37.96875zM515.7125 491.915625c-61.05849609 0-110.73779297-49.68017578-110.73779297-110.7421875s49.67578125-110.7421875 110.73779297-110.7421875c61.06640625 0 110.7421875 49.67578125 110.7421875 110.7421875s-49.67578125 110.7421875-110.7421875 110.7421875zM515.7125 337.93125c-23.84033203 0-43.23779297 19.39833984-43.23779297 43.2421875s19.39833984 43.2421875 43.23779297 43.2421875c23.84824219 0 43.2421875-19.39833984 43.2421875-43.2421875s-19.39394531-43.2421875-43.2421875-43.2421875zM515.71689453 521.109375c20.9671875 0 37.96875 16.99716797 37.96875 37.96875v182.4609375c0 20.97158203-16.99716797 37.96875-37.96875 37.96875-20.97158203 0-37.96875-16.99716797-37.96875-37.96875v-182.4609375c0-20.97158203 17.0015625-37.96875 37.96875-37.96875zM515.71689453 239.5078125c-20.97158203 0-37.96875-16.99716797-37.96875-37.96875v-175.078125c0-20.97158203 16.99716797-37.96875 37.96875-37.96875 20.9671875 0 37.96875 16.99716797 37.96875 37.96875v175.078125c0 20.97158203-16.99716797 37.96875-37.96875 37.96875zM800.33486328 395.35283203c-61.06640625 0-110.7421875-49.67578125-110.7421875-110.7421875 0-61.06201172 49.67578125-110.73779297 110.7421875-110.73779297s110.7421875 49.67578125 110.7421875 110.73779297c0 61.06640625-49.68017578 110.7421875-110.7421875 110.7421875zM800.33486328 241.37285155999996c-23.84384766 0-43.2421875 19.39833984-43.2421875 43.23779297 0 23.84384766 19.39833984 43.2421875 43.2421875 43.2421875s43.2421875-19.39833984 43.2421875-43.2421875c0-23.84033203-19.39833984-43.23779297-43.2421875-43.23779297zM800.33486328 424.078125c20.97158203 0 37.96875 16.99716797 37.96875 37.96875v279.4921875c0 20.97158203-16.99716797 37.96875-37.96875 37.96875s-37.96875-16.99716797-37.96875-37.96875v-279.4921875c0-20.97158203 16.99716797-37.96875 37.96875-37.96875zM800.33486328 142.4765625c-20.97158203 0-37.96875-16.99716797-37.96875-37.96875v-78.046875c0-20.97158203 16.99716797-37.96875 37.96875-37.96875s37.96875 16.99716797 37.96875 37.96875v78.046875c0 20.97158203-17.0015625 37.96875-37.96875 37.96875z"  horiz-adv-x="1024" />

    
    <glyph glyph-name="shujuhuizong" unicode="&#58918;" d="M867.99802482 302.96190406999995V646.5323611c0 42.46085518-35.59980259 77.15448149-79.80828445 77.15448149H235.81025963c-44.20848185 0-79.80828445-34.69362517-79.80828445-77.15448149v-363.44161963c0-42.46085518 35.59980259-77.21920739 79.80828445-77.21920739H770.90765483a97.09036999 97.09036999 0 0 1 97.09036999 97.09036999z m-97.09036999-161.8172837H235.81025963c-79.61410333 0-144.53519815 63.43237518-144.53519816 141.9461211V646.5323611c0 78.51374592 64.92109483 141.88139406 144.53519816 141.8813952h552.37948074c79.61410333 0 144.53519815-63.36764814 144.53519816-141.8813952v-343.57045703a161.8172837 161.8172837 0 0 0-161.8172837-161.8172837zM285.45580259 464.77918777m32.36345629 0l0 0q32.36345629 0 32.36345742-32.36345628l0-64.72691371q0-32.36345629-32.36345742-32.36345629l0 0q-32.36345629 0-32.36345629 32.36345629l0 64.72691371q0 32.36345629 32.36345629 32.36345628ZM479.63654371 594.2330151799999m32.36345629 0l0 0q32.36345629 0 32.36345629-32.36345628l0-194.18074112q0-32.36345629-32.36345629-32.36345629l0 0q-32.36345629 0-32.36345629 32.36345629l0 194.18074112q0 32.36345629 32.36345629 32.36345628ZM673.8172837 529.50610147m32.36345742 0l0 0q32.36345629 0 32.36345629-32.36345628l0-129.45382741q0-32.36345629-32.36345629-32.36345629l0 0q-32.36345629 0-32.36345742 32.36345629l0 129.45382741q0 32.36345629 32.36345742 32.36345628ZM253.09234517 44.31315741000003m32.36345742 0l453.08839482 0q32.36345629 0 32.36345742-32.36345629l0 0q0-32.36345629-32.36345742-32.36345742l-453.08839482 0q-32.36345629 0-32.36345742 32.36345742l0 0q0 32.36345629 32.36345742 32.36345629Z"  horiz-adv-x="1024" />

    
    <glyph glyph-name="quxian" unicode="&#58986;" d="M946.59277344-14.25c0-18.63808594-15.11103516-33.75-33.75-33.75H116.33837891c-18.63896484 0-33.75 15.11191406-33.75 33.75 0 18.63896484 15.11103516 33.75 33.75 33.75H912.84277344c18.63984375 0 33.75087891-15.11103516 33.7508789-33.75zM148.10996094 0.8654296900000418l-65.52246094 16.22285156C101.39257812 93.046875 124.79785156 187.58027344000004 156.67578125 264.19277344c39.33896484 94.5421875 86.10908203 147.62373047 142.98486328 162.27861328 32.17851562 8.28808594 66.43212891 3.86279297 101.81513672-13.15722656 34.54804687-16.61835938 69.93984375-44.78027344 108.19863281-86.09326172 55.76044922-60.20859375 109.07578125-85.02011719 150.14003906-69.8625 58.10888672 21.45058594 97.56123047 119.05048828 102.95859375 254.70966797 5.31386719 133.58496094 129.43652344 199.99248047 134.71699219 202.7540039l31.27851563-59.81660156 0.10898437 0.05800781c-0.24873047-0.13183594-25.05322266-13.47978516-49.63623047-38.95136718-30.98759766-32.10820313-47.48115234-68.01591797-49.02011718-106.72558594-3.21855469-80.91210938-17.07011719-149.36220703-41.16621094-203.45097656-25.40039063-57.01640625-62.00683594-95.709375-105.86425781-111.89970704-34.36699219-12.68701172-72.80595703-11.21044922-111.1640625 4.26972657-37.04326172 14.95019531-74.68505859 42.89238281-111.87597657 83.05136718-31.94648438 34.49707031-61.53222656 58.4296875-87.93457031 71.12988282-20.92763672 10.06699219-39.15 12.88476563-55.71035156 8.61943359-34.47949219-8.88310547-67.28642578-50.21542969-97.50761719-122.84472656-29.91181641-71.87958984-52.63154297-163.65410156-70.88818359-237.39609375zM116.33837891 816c18.63896484 0 33.75-15.11103516 33.75-33.75v-796.5c0-18.63808594-15.11103516-33.75-33.75-33.75-18.63896484 0-33.75 15.11191406-33.75 33.75l-0.00087891 796.5c0 18.63984375 15.11191406 33.75 33.75087891 33.75zM883.86347656 686.72871094a33.75 33.75 0 1 1 67.5 0 33.75 33.75 0 1 1-67.5 0z"  horiz-adv-x="1024" />

    
    <glyph glyph-name="law" unicode="&#58889;" d="M349.263592 717.281619l224.252437-123.694183c6.198166-3.396353 14.112416-1.346671 17.689894 4.553713l6.440689 10.685363c3.602038 5.895267 1.478677 13.488199-4.688789 16.908088l-224.267786 123.669624c-6.192026 3.420913-14.156418 1.376347-17.679661-4.498454l-6.500041-10.716063c-3.566222-5.918803-1.472538-13.488199 4.749164-16.908088l0 0L349.263592 717.281619 349.263592 717.281619zM155.056448 395.93482L379.308885 272.218124c6.198166-3.343141 14.113439-1.328251 17.684778 4.547573l6.470365 10.685363c3.596921 5.870708 1.450025 13.517875-4.722558 16.938788L174.463451 428.029796c-6.193049 3.426029-14.113439 1.346671-17.664312-4.519943l-6.466272-10.69048C146.711386 406.953781 148.83577 399.380292 155.056448 395.93482L155.056448 395.93482 155.056448 395.93482 155.056448 395.93482zM945.848036 244.84161300000005L497.03003 467.024925l60.300364 99.806123c3.602038 5.89936 1.449002 13.493316-4.700045 16.918321L350.809808 695.049269c-6.197142 3.400446-14.161534 1.351787-17.712407-4.548596L190.649085 454.888514c-3.498684-5.900384-1.399883-13.517875 4.744048-16.918321l201.87887-111.297852c6.14393-3.421936 14.112416-1.351787 17.630542 4.517897l60.397578 99.836823 425.828408-260.19709c5.996574-3.671623 13.843286-1.820462 17.385972 4.050246l32.373315 53.575196C954.411062 234.30156 952.142392 241.69494699999996 945.848036 244.84161300000005L945.848036 244.84161300000005 945.848036 244.84161300000005 945.848036 244.84161300000005zM1016.687431 213.56630600000005l-22.48613 12.342096c-6.119371 3.399423-14.136975 1.345648-17.679661-4.547573l-38.872333-64.244186c-3.542686-5.868661-1.366114-13.487176 4.753257-16.883529l22.427802-12.341073c6.167466-3.444449 14.135952-1.37123 17.709337 4.524037l38.838563 64.24214C1024.925046 202.55757800000003 1022.826245 210.170976 1016.687431 213.56630600000005L1016.687431 213.56630600000005 1016.687431 213.56630600000005 1016.687431 213.56630600000005zM532.105897 137.261433l-27.028587 0c3.390213 3.645017-8.271384 0.268106-8.271384 5.51869l0 64.170508L66.229377 206.95063100000004l0-64.170508c0-5.240351-22.980387-1.868557-19.544125-5.51869l-27.025517 0C7.856922 137.261433-0.000023 121.89955999999995-0.000023 110.70970699999998l0-64.169485c0-11.164271 7.881504-31.650861 19.659759-31.650861l512.441045 0c11.789511 0 30.92329 20.48659 30.92329 31.650861l0 64.169485C563.02407 121.86988399999996 543.896431 137.261433 532.105897 137.261433L532.105897 137.261433 532.105897 137.261433 532.105897 137.261433zM496.805926 46.535105000000044L66.229377 46.535105000000044c-12.351306 0-33.120328 20.286022-33.120328 32.075533 0.038886 11.789511 20.773116 32.123628 33.120328 32.099069l430.576549 0c12.388145 0 33.148981-20.334117 33.099862-32.099069C529.905789 66.79145100000005 509.195094 46.535105000000044 496.805926 46.535105000000044L496.805926 46.535105000000044 496.805926 46.535105000000044 496.805926 46.535105000000044zM496.805926 46.535105000000044"  horiz-adv-x="1026" />

    
    <glyph glyph-name="home" unicode="&#58923;" d="M972.8 322.55999999999995c0-15.36-5.12-30.72-15.36-40.96-10.24-10.24-25.6-15.36-40.96-15.36-15.36 0-25.6 5.12-35.84 15.36-5.12 5.12-10.24 10.24-25.6 30.72l-56.32 56.32-71.68 71.68c-25.6 25.6-46.08 51.2-71.68 71.68-20.48 25.6-40.96 46.08-56.32 66.56l-30.72 30.72c-20.48 20.48-40.96 30.72-56.32 30.72-20.48 0-35.84-10.24-56.32-30.72-5.12-5.12-15.36-20.48-35.84-35.84-15.36-15.36-35.84-35.84-56.32-61.44L291.84 440.32c-25.6-25.6-46.08-46.08-66.56-71.68l-56.32-56.32-25.6-25.6c-10.24-10.24-20.48-10.24-35.84-15.36-15.36 0-30.72 5.12-40.96 15.36-10.24 15.36-15.36 30.72-15.36 46.08 0 15.36 5.12 30.72 15.36 40.96l35.84 35.84c20.48 20.48 40.96 40.96 66.56 71.68L256 568.3199999999999c30.72 30.72 56.32 61.44 87.04 87.04 25.6 25.6 46.08 51.2 66.56 71.68 20.48 20.48 30.72 30.72 30.72 35.84 20.48 20.48 46.08 35.84 71.68 35.84 25.6 0 51.2-10.24 66.56-30.72 5.12-5.12 10.24-10.24 20.48-25.6s25.6-25.6 40.96-46.08c25.6-15.36 40.96-35.84 61.44-56.32 20.48-20.48 40.96-46.08 61.44-66.56 20.48-20.48 40.96-46.08 61.44-66.56 20.48-20.48 40.96-40.96 56.32-61.44 15.36-20.48 30.72-35.84 40.96-46.08l20.48-25.6c25.6-15.36 30.72-30.72 30.72-51.2zM855.04 220.15999999999997v-215.04c0-10.24-5.12-20.48-10.24-25.6-5.12-5.12-15.36-10.24-20.48-10.24h-184.32c-5.12 0-10.24 0-10.24 5.12-5.12 5.12-5.12 10.24-5.12 15.36v158.72c0 5.12 0 10.24-5.12 10.24-5.12 5.12-5.12 5.12-10.24 5.12H409.6c-5.12 0-10.24 0-10.24-5.12-5.12-5.12-5.12-10.24-5.12-10.24v-158.72c0-5.12 0-10.24-5.12-15.36-5.12-5.12-5.12-5.12-10.24-5.12H199.68c-10.24 0-15.36 5.12-20.48 10.24-5.12 5.12-10.24 15.36-10.24 25.6v220.16c51.2 51.2 286.72 291.84 286.72 291.84 15.36 15.36 35.84 30.72 56.32 30.72 20.48 0 35.84-15.36 56.32-30.72 0 0 235.52-245.76 286.72-296.96z"  horiz-adv-x="1024" />

    
    <glyph glyph-name="video" unicode="&#58929;" d="M897.93422222 598.24355555c-9.216 5.57511111-19.68355555 8.53333333-31.40266667 8.53333334-11.37777778 0-23.09688889-2.84444445-34.92977777-8.41955556l-160.99555556-76.11733333V548.97777778c0 50.28977778-41.87022222 91.02222222-93.07022222 91.02222222H188.75733333c-51.42755555 0-93.07022222-40.84622222-93.07022222-91.02222222v-329.04533333c0-50.28977778 41.87022222-91.02222222 93.07022222-91.02222223h388.55111112c51.42755555 0 93.07022222 40.96 93.07022222 91.02222223v26.624L831.71555555 169.75644445c11.71911111-5.57511111 23.552-8.53333333 35.04355556-8.53333334 11.49155555 0 22.07288889 2.95822222 31.17511111 8.41955556 18.432 11.264 29.01333333 32.54044445 29.01333333 58.368v311.75111111c0 25.71377778-10.46755555 46.99022222-29.01333333 58.48177777z m-29.46844444-95.34577777v-236.88533333c0-8.192-2.50311111-14.67733333-6.59911111-17.18044445-1.70666667-1.024-3.86844445-1.59288889-6.37155556-1.59288889-3.52711111 0-7.62311111 1.13777778-12.06044444 3.18577778l-133.68888889 65.19466666V453.97333333l133.57511111 64.512c4.32355555 2.048 8.53333333 3.18577778 12.06044444 3.18577778 2.50311111 0 4.66488889-0.56888889 6.37155556-1.70666666 4.20977778-2.38933333 6.71288889-8.76088889 6.71288889-17.06666667z m-714.63822223 31.63022222c0 25.03111111 20.93511111 45.16977778 46.87644445 45.16977778h362.72355555c25.82755555 0 46.87644445-20.25244445 46.87644445-45.16977778v-303.104c0-25.03111111-20.93511111-45.16977778-46.87644445-45.16977778H200.704c-25.71377778 0-46.87644445 20.25244445-46.87644445 45.16977778V534.528z m0 0M561.37955555 206.05155555h-358.4c-15.47377778 0-28.10311111 12.62933333-28.1031111 28.10311112V525.76711111c0 15.47377778 12.62933333 28.10311111 28.1031111 28.10311111h358.4c15.47377778 0 28.10311111-12.62933333 28.10311112-28.10311111v-291.61244444c0-15.58755555-12.51555555-28.10311111-28.10311112-28.10311112zM275 460.6c5.7 0 11.4 2.3 15.4 6.4 4.1 4.1 6.4 9.7 6.4 15.4 0 5.8-2.3 11.4-6.4 15.4s-9.7 6.4-15.4 6.4-11.4-2.3-15.4-6.4c-4.1-4.1-6.4-9.7-6.4-15.4 0-5.7 2.3-11.4 6.4-15.4 4-4 9.7-6.4 15.4-6.4z m0 0"  horiz-adv-x="1024" />

    
    <glyph glyph-name="scenery" unicode="&#58984;" d="M680.93724445 726.68046222c98.88654222 0 179.42300445-80.39082667 179.42300444-179.42300444 0-32.62236445-8.73813333-63.35146667-24.02986667-89.71150223l39.03032889-49.51608888c28.25329778 39.17596445 44.85575111 87.38133333 44.85575111 139.22759111 0 131.94581333-107.33340445 239.27921778-239.27921777 239.27921777-85.48807111 0-160.63601778-45.00138667-203.01596445-112.72192l40.19541333-51.11808a179.27736889 179.27736889 0 0 0 162.82055112 103.98378667zM842.30144 374.97059555L803.27111111 424.48668445l-75.29358222 95.68256c-10.92266667 18.78698667-38.15651555 18.78698667-49.07918222 0l-69.61379556-88.25514667-124.22712889 157.72330667-40.19541333 51.11808-19.51516444 24.75804444c-16.89372445 29.27274667-59.12803555 29.27274667-75.87612445 0L78.00604445 320.79416889000004c-16.89372445-29.27274667 4.22343111-65.82727111 38.01088-65.82727111H878.71032889c21.84533333 0 35.53507555 23.59296 24.61240889 42.52558222l-61.02129778 77.47811555zM712.68579555 185.20746667000003c0 13.83537778-11.21393778 24.90368-24.90368 24.90368H144.27022222a24.90368 24.90368 0 1 1 0-49.80736h543.36625778c13.83537778 0 25.04931555 11.06830222 25.04931555 24.90368zM787.39683555 120.39964444999998H209.07804445a24.90368 24.90368 0 1 1 0-49.80736h578.3187911a24.90368 24.90368 0 1 1 0 49.80736zM837.20419555 210.11114667000004h-69.7594311a24.90368 24.90368 0 1 1 0-49.80736h69.7594311a24.90368 24.90368 0 1 1 0 49.80736z"  horiz-adv-x="1024" />

    
    <glyph glyph-name="reservoir" unicode="&#58983;" d="M217.712 545.952l28.944 26.448c23.568 21.36 55.968 21.36 79.392 0l22.32-20.256a18.192 18.192 0 0 1 25.2 0l22.32 20.256c23.568 21.36 55.968 21.36 79.248 0l22.464-20.208a18.192 18.192 0 0 1 25.2 0l22.464 20.256c23.424 21.36 55.824 21.36 79.248 0l22.464-20.256a18.192 18.192 0 0 1 25.2 0l22.32 20.256c23.568 21.36 55.968 21.36 79.392 0l22.32-20.256c9.936-8.976 11.712-26.064 4.272-37.92s-21.504-14.208-31.44-5.232l-22.32 20.256a18.192 18.192 0 0 1-25.2 0l-22.464-20.256c-23.568-21.36-55.824-21.36-79.248 0l-22.464 20.256a18.192 18.192 0 0 1-25.2 0l-22.32-20.256c-10.752-10.176-24.816-15.84-39.552-15.984-14.352 0-28.272 5.664-39.696 15.984l-22.272 20.256a18.192 18.192 0 0 1-25.2 0l-22.512-20.256c-23.568-21.36-55.824-21.36-79.248 0l-22.464 20.256a18.192 18.192 0 0 1-25.2 0l-28.944-26.448c-9.792-8.976-23.856-6.624-31.44 5.232-7.296 11.856-5.376 28.8 4.416 37.872zM217.712 390.912l28.944 26.448c23.568 21.36 55.968 21.36 79.392 0l22.32-20.256a18.192 18.192 0 0 1 25.2 0l22.32 20.256c23.568 21.36 55.968 21.36 79.248 0l22.464-20.256a18.192 18.192 0 0 1 25.2 0l22.464 20.256c23.424 21.36 55.824 21.36 79.248 0l22.464-20.256a18.192 18.192 0 0 1 25.2 0l22.32 20.256c23.568 21.36 55.968 21.36 79.392 0l22.32-20.256c9.936-9.12 11.712-26.064 4.272-37.92-7.44-12-21.504-14.208-31.44-5.088l-22.32 20.256a18.192 18.192 0 0 1-25.2 0l-22.464-20.256c-23.568-21.36-55.824-21.36-79.248 0l-22.464 20.256a18.192 18.192 0 0 1-25.2 0l-22.32-20.256c-10.752-10.176-24.816-15.84-39.552-15.984-14.352 0-28.272 5.664-39.696 15.984l-22.32 20.256a18.192 18.192 0 0 1-25.2 0l-22.464-20.256c-23.568-21.36-55.824-21.36-79.248 0l-22.464 20.256a18.192 18.192 0 0 1-25.2 0l-28.944-26.448c-9.792-9.12-23.856-6.768-31.44 5.088-7.296 11.856-5.376 28.944 4.416 37.92zM936.464 118.17600000000004a42.24 42.24 0 0 0-42.288-42.576H131.984a42.48 42.48 0 0 0-42.288 42.576V629.328c0 23.568 19.008 42.576 42.336 42.576 23.424 0 42.336-19.008 42.336-42.576v-340.704h677.424V629.328c0 23.568 19.008 42.576 42.336 42.576 23.424 0 42.336-19.008 42.336-42.576v-511.2z"  horiz-adv-x="1024" />

    
    <glyph glyph-name="back" unicode="&#58925;" d="M666.829 550.298H199.27c29.9008 30.3104 60.6208 62.0544 82.7392 85.1968 13.1072 13.7216 23.1424 24.1664 28.2624 29.2864a24.5965 24.5965 0 1 1-34.816 34.816c-5.12-5.12-15.5648-15.9744-28.8768-29.9008-24.7808-25.8048-60.2112-62.8736-93.3888-95.8464a68.608 68.608 0 0 1 0-97.0752c14.1312-14.1312 43.2128-42.5984 72.2944-71.0656 29.0816-28.4672 57.9584-56.7296 72.0896-70.8608a24.6579 24.6579 0 0 1 34.816 0c9.6256 9.6256 9.6256 25.1904 0 34.816-14.1312 14.1312-43.2128 42.5984-72.2944 71.0656-23.1424 22.7328-46.08 45.2608-61.6448 60.416h468.582c107.725 0 195.379-87.6544 195.379-195.379s-87.6544-195.379-195.379-195.379H226.918c-13.5168 0-24.576-11.0592-24.576-24.576s11.0592-24.576 24.576-24.576h439.91c134.758 0 244.531 109.773 244.531 244.531s-109.568 244.531-244.531 244.531Z"  horiz-adv-x="1024" />

    
    <glyph glyph-name="huidaozhengbei" unicode="&#58978;" d="M512 832C264.58 832 64 631.42 64 384s200.58-448 448-448 448 200.58 448 448S759.42 832 512 832z m-60.88-758.4H269.29v25.42h27.09v91.85h27.46v-91.85h32.1V211.09h-79.23v25.42H445v-25.42h-61.04v-40.63h54.55v-25.23h-54.55v-46.2h67.17v-25.43zM343.91 299.91l168.09 402 168.09-402L512 382.01l-168.09-82.1z m284.74-234.1h-27.83v31.17l-43.23-14.47-5.01 28.76c16.33 4.33 32.41 8.78 48.24 13.36V175.1H556.1v24.49h44.72v45.09h27.83v-178.87z m61.79 27.83h4.64c3.15 0 5.77 0.87 7.84 2.6 2.07 1.73 3.6 4.36 4.59 7.89 0.99 3.53 2.04 15.06 3.15 34.6l26.16-7.98c-0.99-12.87-2.17-23.91-3.53-33.12-1.36-9.21-4.79-16.14-10.3-20.78-5.51-4.64-13.08-6.96-22.73-6.96h-16.51c-21.65 0-32.47 9.77-32.47 29.32V244.86h27.83v-54.55c14.53 9.96 27.89 19.98 40.08 30.06l19.11-21.89c-18.37-13.3-38.1-26.44-59.19-39.43v-54.83c0.01-7.05 3.78-10.58 11.33-10.58z"  horiz-adv-x="1024" />

    
    <glyph glyph-name="sanweiditu" unicode="&#58979;" d="M512 657.8l-133.82-67.38L512 545.71l138.6 44.71-138.6 67.4zM378.18 412.49L512 345.11v155.8l-133.82 44.8zM649.62 117.21h27.09v-19.3h-27.09zM601.33 522.39c-24.68-6.25-44.67-31.33-44.67-55.99 0-24.68 39.73-76.87 39.73-76.87s49.6 74.88 49.6 99.54c0.01 24.68-19.98 39.58-44.66 33.32z m0-67C589 452.27 579 459.73 579 472.05s10.01 24.88 22.33 28.01c12.33 3.13 22.34-4.33 22.34-16.66s-10.01-24.88-22.34-28.01zM512 832C264.58 832 64 631.42 64 384s200.58-448 448-448 448 200.58 448 448S759.42 832 512 832zM282.27 232.62h155.49v-27.46H282.27v27.46z m147.14-62.72v-26.72H290.62V169.9h138.79z m20.6-93.51H270.77v27.46h179.24v-27.46zM512 299.91l-178.67 87.88V614.05L512 701.91l178.67-88.73v-225.39L512 299.91z m68.04-50.96l22.82-6.87c-9.28-19.42-17.94-36.31-25.98-50.65 2.78 0 6.34 0.09 10.67 0.28 3.71 7.48 7.64 15.74 11.78 24.77l20.78-7.79c-12.74-26.6-24-48.18-33.77-64.76 6.93 0.62 15.89 1.67 26.9 3.15-1.11-5.94-1.86-13.36-2.23-22.27-21.15-1.73-37.17-3.77-48.06-6.12l-6.31 20.97c5.32 5.81 12.03 16.24 20.13 31.26l-18.09-1.58-6.31 20.41c6.21 7.18 15.42 26.91 27.67 59.2z m37.11-162.73c-19.3-2.97-39.58-6.43-60.86-10.39l-3.71 25.98c18.06 2.35 39.83 5.75 65.31 10.21-0.62-10.4-0.87-19-0.74-25.8z m118.19-7.98h-85.72v-12.99h-24.49v91.2c-2.72-4.02-5.51-7.89-8.35-11.6-3.22 10.27-6.56 18.49-10.02 24.68 15.21 23.38 26.53 49.6 33.96 78.67l23.75-6.31c-2.91-9.65-6.09-18.93-9.56-27.83h28.48c-3.84 7.67-8.47 15.89-13.92 24.68l18.37 10.21c7.42-10.52 13.3-19.36 17.63-26.53l-15.86-8.35h43.51v-20.04H701.2v-19.3h30.43v-19.11H701.2v-19.3h30.43v-19.11H701.2v-19.3h34.14v-19.67zM649.62 155.62h27.09v-19.3h-27.09zM649.62 194.02h27.09v-19.3h-27.09z"  horiz-adv-x="1024" />

    
    <glyph glyph-name="shangyou" unicode="&#58980;" d="M512 832C264.58 832 64 631.42 64 384s200.58-448 448-448 448 200.58 448 448S759.42 832 512 832zM262 647.86h264.38v-41.08H262v41.08z m0-61.62h264.38v-39.87H262v39.87z m0-61.61h264.38v-39.87H262v39.87z m188.19-450.1H270.58v26.16h68.84V246.72h30.06v-51.4h68.65v-26.53h-68.65v-68.1h80.71v-26.16z m76.19 225.38H262v39.87h264.38v-39.87z m0 61.62H262V401.4h264.38v-39.87z m0 61.61H262v39.87h265.59c0-13.29 0-26.58-1.21-39.87z m38.82-226.7a476.4 476.4 0 0 0 28.57-23.19l-17.44-19.48c-9.65 10.27-18.25 18.86-25.79 25.79l14.66 16.88z m-9.65 33.58l14.84 17.44c9.15-7.05 18.18-14.23 27.09-21.52l-17.44-18.93a360.046 360.046 0 0 1-24.49 23.01z m-3.53-156.97c5.81 20.41 11.38 44.16 16.7 71.25 8.04-3.34 15.77-6.25 23.19-8.72l-16.51-70.14a558.6 558.6 0 0 1-23.38 7.61z m185.36 49.72h-25.42v-30.8c0-8.41-1.42-14.39-4.27-17.95-2.85-3.56-6.65-5.84-11.41-6.87-4.76-1.02-14.26-1.53-28.48-1.53-0.99 6.93-2.54 14.91-4.64 23.94 7.17-0.49 12.74-0.74 16.7-0.74 5.94 0 8.91 3.15 8.91 9.46v24.49h-26.9v22.27h26.9v10.02l11.88 15.4h-33.58v13.08c-1.36 2.47-3.62 5.97-6.77 10.48h-34.6l-0.19-19.85h33.4c-0.5-45.83-1.3-73.54-2.41-83.12s-3.91-16.16-8.4-19.71-13.39-5.34-26.68-5.34c-1.73 9.65-3.46 18.12-5.2 25.42 5.32-0.5 9.28-0.74 11.88-0.74 4.08 0 6.54 1.81 7.38 5.43 0.84 3.62 1.47 22.16 1.9 55.62h-12.25c-1.18-37.98-9.03-67.72-23.56-89.25-4.08 11.38-8.23 20.97-12.43 28.76 4.27 7.24 7.48 15.12 9.65 23.66 2.16 8.53 3.63 17.21 4.41 26.02 0.77 8.81 1.22 26.52 1.35 53.11H593.4v24.12h26.07c-2.85 6.68-6.59 13.98-11.23 21.89l21.71 8.72c6.68-11.5 11.26-20.29 13.73-26.35l-9.56-4.27h28.11c4.76 9.34 8.91 19.54 12.43 30.62l23.94-4.64c-1.86-5.69-3.87-11.2-6.03-16.51h44.44v-22.27h-54.74c-2.54-4.89-5.23-9.53-8.07-13.92h55.76v-20.6l-18-20.97v-4.82h25.42v-22.26zM546.92 299.91V702.38h83.39c10.87 0 18.12-8.46 20.54-19.33 31.41-134.11 62.83-224.87 94.24-358.98 1.21-8.46 2.42-15.7 4.83-24.16h-203z"  horiz-adv-x="1024" />

    
    <glyph glyph-name="erweiditu" unicode="&#58981;" d="M649.62 117.21h27.09v-19.3h-27.09zM649.62 155.62h27.09v-19.3h-27.09zM649.62 194.02h27.09v-19.3h-27.09zM576.97 576.44c0 35.85-28.17 64.01-64.01 64.01-35.85 0-64.01-28.16-64.01-64.01 0-35.85 28.17-64.01 64.01-64.01 35.85 0 64.01 28.17 64.01 64.01zM512 832C264.58 832 64 631.42 64 384s200.58-448 448-448 448 200.58 448 448S759.42 832 512 832z m0.96-130.09c71.69 0 128.02-58.89 128.02-128.03 0-69.13-128.02-199.72-128.02-199.72S384.93 502.19 384.93 573.88c0 71.7 56.34 128.03 128.03 128.03z m-63.32-616.99h-178.5v28.2h178.5v-28.2zM284.5 199.96v27.83h151.41v-27.83H284.5z m303.05-8.26c3.71 7.48 7.64 15.74 11.78 24.77l20.78-7.79c-12.74-26.6-24-48.18-33.77-64.76 6.93 0.62 15.89 1.67 26.9 3.15-1.11-5.94-1.86-13.36-2.23-22.27-21.15-1.73-37.17-3.77-48.06-6.12l-6.31 20.97c5.32 5.81 12.03 16.23 20.13 31.26l-18.09-1.58-6.31 20.41c6.18 7.17 15.4 26.9 27.65 59.19l22.82-6.87c-9.28-19.42-17.94-36.31-25.98-50.65 2.81 0.02 6.36 0.11 10.69 0.29z m29.6-105.48c-19.3-2.97-39.58-6.43-60.86-10.39l-3.71 25.98c18.06 2.35 39.83 5.75 65.31 10.21-0.62-10.4-0.87-19-0.74-25.8z m118.19-7.98h-85.72v-12.99h-24.49v91.2c-2.72-4.02-5.51-7.88-8.35-11.6-3.22 10.27-6.56 18.49-10.02 24.68 15.21 23.38 26.53 49.6 33.96 78.67l23.75-6.31c-2.91-9.65-6.09-18.93-9.56-27.83h28.48c-3.84 7.67-8.47 15.89-13.92 24.68l18.37 10.21c7.42-10.52 13.3-19.36 17.63-26.53l-15.86-8.35h43.51v-20.04H701.2v-19.3h30.43v-19.11H701.2v-19.3h30.43v-19.11H701.2v-19.3h34.14v-19.67z m5.5 226.79c-2.56-2.56-5.12-5.12-7.68-5.12H290.2c-2.56 0-5.12 2.56-7.68 5.12-2.56 5.12-2.56 7.68 0 10.24l74.26 135.71c0 2.56 5.12 5.12 7.68 5.12h53.77c35.85-46.09 74.26-87.06 81.94-94.74l12.81-12.8 12.8 12.8c7.68 7.68 48.65 48.65 81.94 94.74h53.77c2.56 0 5.12-2.56 7.68-5.12l74.26-135.71c-0.02-2.56-0.02-5.12-2.59-10.24z"  horiz-adv-x="1024" />

    
    <glyph glyph-name="xiayou" unicode="&#58982;" d="M512 832C264.58 832 64 631.42 64 384s200.58-448 448-448 448 200.58 448 448S759.42 832 512 832z m28.21-318.09c15.74 6.28 32.91 5.03 48.65-1.26 18.6-7.54 37.21-7.54 55.81 0 18.6 6.28 35.77 6.28 54.38 0 8.58-2.51 17.17-3.77 27.19-6.28v-35.18c-8.59 2.51-17.17 3.77-24.33 6.28-20.03 7.54-38.63 7.54-58.67 0-15.74-6.28-32.91-6.28-50.08 0-20.03 7.54-38.64 7.54-58.67 0-11.45-5.03-22.9-6.28-35.77-3.77-4.29 1.26-5.72 2.51-7.15 6.28-2.86 10.05-5.72 21.36-8.58 33.92 21.45-7.52 40.05-5.01 57.22 0.01z m186.02-67.01v-35.18c-8.05 2.51-16.09 3.77-22.79 6.28-18.77 7.54-36.2 7.54-54.97 0-14.75-6.28-30.84-6.28-46.93 0-18.77 7.54-36.2 7.54-54.97 0-10.72-5.03-21.45-6.28-33.52-3.77-4.02 1.26-5.36 2.51-6.7 6.28-2.68 10.05-5.36 21.36-8.04 33.92 20.11-7.54 37.54-5.02 53.63 0 14.75 6.28 30.84 5.03 45.58-1.26 17.43-7.54 34.86-7.54 52.29 0 17.43 6.28 33.52 6.28 50.95 0 8.04-2.51 16.08-3.76 25.47-6.27zM449.64 210.72h-80.9v-36.92l16.33 16.33c20.04-14.35 40.14-29.26 60.3-44.72l-19.11-23.38c-21.03 18.18-40.2 33.71-57.52 46.57v-102.98h-30.06v145.1H270.4v26.16h179.24v-26.16z m-154.38 89.52V701.91h95.55c11.31 0 18.84-8.79 21.36-20.1 32.66-139.45 65.33-217 97.99-356.45 1.26-8.79 2.51-16.33 5.02-25.12H295.26z m224.94 64.07c-2.51 10.05-5.03 21.36-7.54 33.92 18.84-7.54 35.18-5.02 50.25 0 13.82 6.28 28.89 5.03 42.71-1.26 16.33-7.54 32.67-7.54 49 0 16.33 6.28 31.41 6.28 47.74 0 7.54-2.51 15.07-3.77 23.87-6.28v-35.18c-7.54 2.51-15.07 3.77-21.36 6.28-17.59 7.54-33.92 7.54-51.51 0-13.82-6.28-28.89-6.28-43.97 0-17.59 7.54-33.92 7.54-51.51 0-10.05-5.03-20.1-6.28-31.41-3.77-3.76 1.26-5.01 2.52-6.27 6.29zM535.28 304c-2.51 10.05-5.02 21.36-7.54 32.66 12.56-1.26 23.87 1.26 37.69 5.03 15.07 5.03 28.89 5.03 43.97-1.26 16.33-7.54 32.66-7.54 49 0 13.82 7.54 28.89 6.28 43.97 1.26l26.38-7.54v-33.92c-8.79-1.26-16.33 1.26-23.87 5.02-16.33 6.28-31.4 6.28-47.74 0-6.28-2.51-12.56-5.02-18.84-5.02-10.05 1.26-20.1 1.26-28.89 5.02-16.33 6.28-31.41 6.28-47.74 0-6.28-2.51-13.82-3.77-21.36-5.02-1.26 0.01-5.03 2.52-5.03 3.77z m62.2-78.06l-17.44-18.93a360.046 360.046 0 0 1-24.49 23.01l14.84 17.44c9.15-7.05 18.19-14.23 27.09-21.52z m-32.28-29.5a476.4 476.4 0 0 0 28.57-23.19l-17.44-19.48c-9.65 10.27-18.25 18.86-25.79 25.79l14.66 16.88z m-13.18-123.39c5.81 20.41 11.38 44.16 16.7 71.25 8.04-3.34 15.77-6.25 23.19-8.72l-16.51-70.14a558.6 558.6 0 0 1-23.38 7.61z m185.36 49.72h-25.42v-30.8c0-8.41-1.42-14.39-4.27-17.95-2.85-3.56-6.65-5.84-11.41-6.87-4.76-1.02-14.26-1.53-28.48-1.53-0.99 6.93-2.54 14.91-4.64 23.94 7.17-0.49 12.74-0.74 16.7-0.74 5.94 0 8.91 3.15 8.91 9.46v24.49h-26.9v22.27h26.9v10.02l11.88 15.4h-33.58v13.08c-1.36 2.47-3.62 5.97-6.77 10.48h-34.6l-0.19-19.85h33.4c-0.5-45.83-1.3-73.54-2.41-83.13s-3.91-16.16-8.4-19.71-13.39-5.33-26.68-5.33c-1.73 9.65-3.46 18.12-5.2 25.42 5.32-0.5 9.28-0.74 11.88-0.74 4.08 0 6.54 1.81 7.38 5.43 0.84 3.62 1.47 22.16 1.9 55.62h-12.25c-1.18-37.98-9.03-67.72-23.56-89.25-4.08 11.38-8.23 20.97-12.43 28.76 4.27 7.24 7.48 15.12 9.65 23.66a165.42 165.42 0 0 1 4.41 26.02c0.77 8.81 1.22 26.52 1.35 53.11H593.4v24.12h26.07c-2.85 6.68-6.59 13.98-11.23 21.89l21.71 8.72c6.68-11.5 11.26-20.29 13.73-26.35l-9.56-4.27h28.11c4.76 9.34 8.91 19.54 12.43 30.62l23.94-4.64c-1.86-5.69-3.87-11.2-6.03-16.51h44.44v-22.27h-54.74c-2.54-4.89-5.23-9.53-8.07-13.92h55.76v-20.6l-18-20.97v-4.82h25.42v-22.26z"  horiz-adv-x="1024" />

    
    <glyph glyph-name="dot-circle" unicode="&#62092;" d="M512 784c221.064 0 400-178.902 400-400 0-221.064-178.902-400-400-400-221.064 0-400 178.902-400 400 0 221.064 178.902 400 400 400m0 96C238.066 880 16 657.934 16 384s222.066-496 496-496 496 222.066 496 496S785.934 880 512 880z m0-336c-88.366 0-160-71.634-160-160s71.634-160 160-160 160 71.634 160 160-71.634 160-160 160z"  horiz-adv-x="1024" />

    
    <glyph glyph-name="jurassic_tras-dzcx" unicode="&#59092;" d="M266.8 675.8L109.5 832 64 786.8l157.3-156.2L97.6 507.7h292.8l0.1 290.9zM754.1 389.6L914.7 229l45.3 45.3L799.4 435l68.9 68.9-45.3 45.3-68.9-68.9-120.6 120.6 68.9 68.9-45.3 45.3-68.9-68.9-104.3 104.3-29.3-29.3v-32l88.3-88.3-88.3-88.3v-68.9h-68.9l-90.4-90.4-90.4 90.4h-27.8l-31.4-31.4L250 308l-68.9-68.9 45.3-45.3 68.9 68.9 120.6-120.6-69.1-69.1 45.3-45.3 68.9 68.9L621.6-64l45.3 45.3-160.5 160.6 101.2 101.2 265.7-265.7 45.3 45.3-265.7 265.7 101.2 101.2zM461 187.29999999999995L340.5 307.79999999999995 441.6 409l120.6-120.6L461 187.29999999999995z m146.6 146.5L487 454.4l101.2 101.2L708.7 435 607.6 333.79999999999995z"  horiz-adv-x="1024" />

    
    <glyph glyph-name="xunjiandian" unicode="&#58977;" d="M512.01 182.25c-9.34 0-18.19 4.17-24.13 11.38-22.46 27.26-219.43 269.95-219.43 394.8C268.44 722.75 377.7 832 512.01 832c134.29 0 243.56-109.25 243.56-243.57 0-124.85-196.96-367.54-219.42-394.8a31.34 31.34 0 0 0-24.14-11.38z m0 587.21c-99.82 0-181.03-81.2-181.03-181.03 0-76.44 114.61-239.52 181.03-324.81 66.42 85.29 181.02 248.37 181.02 324.81 0 99.83-81.21 181.03-181.02 181.03zM512.01 466.01c-63.22 0-114.65 51.44-114.65 114.65S448.79 695.3 512.01 695.3s114.65-51.44 114.65-114.65-51.44-114.64-114.65-114.64z m0 166.76c-28.73 0-52.11-23.37-52.11-52.11s23.38-52.11 52.11-52.11 52.11 23.37 52.11 52.11-23.38 52.11-52.11 52.11zM858.87-64H227.35c-17.27 0-31.27 14.01-31.27 31.27s14 31.27 31.27 31.27h631.53c17.24 0 31.27 14.03 31.27 31.27 0 17.43-14.03 31.45-31.27 31.45H165.13c-51.73 0-93.8 42.08-93.8 93.8 0 53.07 42.08 95.15 93.8 95.15h90.57c17.27 0 31.27-14.01 31.27-31.27 0-17.26-14-31.27-31.27-31.27h-90.57c-17.24 0-31.27-14.03-31.27-31.27 0-18.59 14.03-32.61 31.27-32.61h693.75c51.73 0 93.8-42.08 93.8-93.8 0-51.91-42.08-93.99-93.81-93.99z"  horiz-adv-x="1024" />

    
    <glyph glyph-name="zhamenjichushuju" unicode="&#59266;" d="M219.428571 676.571429v-512H146.285714v-146.285715h292.571429v146.285715H365.714286V676.571429h292.571428v-512H585.142857v-146.285715h292.571429v146.285715h-73.142857V676.571429h219.428571v-804.571429H0V676.571429h219.428571z m658.285715 219.428571v-146.285714H146.285714V896h731.428572z"  horiz-adv-x="1024" />

    
    <glyph glyph-name="guanbi1" unicode="&#58976;" d="M511.739259 578.038519c-107.241481 0-194.180741-86.939259-194.18074-194.180741s86.939259-194.180741 194.18074-194.180741 194.180741 86.939259 194.180741 194.180741-86.939259 194.180741-194.180741 194.180741z m85.925926-245.641482c9.517037-9.517037 9.517037-24.948148 0-34.465185-9.517037-9.517037-24.948148-9.517037-34.465185 0l-51.460741 51.703704-51.46074-51.703704c-9.517037-9.517037-24.948148-9.517037-34.465186 0-9.517037 9.517037-9.517037 24.948148 0 34.465185l51.703704 51.460741-51.703704 51.460741c-9.517037 9.517037-9.517037 24.948148 0 34.465185 9.517037 9.517037 24.954074 9.517037 34.465186 0l51.46074-51.703704 51.460741 51.703704c9.517037 9.517037 24.948148 9.517037 34.465185 0 9.517037-9.517037 9.517037-24.948148 0-34.465185l-51.703704-51.460741 51.703704-51.460741z m0 0"  horiz-adv-x="1024" />

    
    <glyph glyph-name="guanbi" unicode="&#58975;" d="M698.488889 260.059259c5.434074-12.82963 2.619259-27.674074-7.134815-37.617778-78.548148-88.847407-209.967407-107.543704-310.180741-44.142222-100.213333 63.407407-139.597037 190.174815-92.948148 299.205926a225.386667 225.386667 0 0 0 127.016296 130.121482c95.65037 40.586667 206.518519 16.059259 276.118519-61.090371 9.6-10.068148 12.219259-24.918519 6.637037-37.665185-5.582222-12.746667-18.26963-20.894815-32.177778-20.66963a37.29363 37.29363 0 0 0-26.577778 12.426667 172.574815 172.574815 0 0 1-126.666666 56.604445c-53.445926 0.011852-103.881481-24.734815-136.574815-67.016297-32.687407-42.281481-43.946667-97.321481-30.477037-149.042963 15.561481-62.672593 65.321481-111.093333 128.391111-124.942222 60.752593-13.754074 124.201481 6.293333 166.014815 52.462222a34.51437 34.51437 0 0 0 26.577778 12.426667c13.931852 0.077037 26.542222-8.225185 31.982222-21.060741z m132.841481 146.263704L752.177778 485.499259l-0.148148 0.142222c-11.952593 11.685926-31.300741 11.573333-43.122963-0.248888-11.822222-11.822222-11.928889-31.164444-0.242963-43.122963l23.099259-23.105186H528.651852c-19.057778 0-34.512593-15.448889-34.512593-34.512592s15.448889-34.512593 34.512593-34.512593h203.111111l-22.957037-22.957037-0.142222-0.142222c-11.685926-11.952593-11.579259-31.300741 0.242963-43.122963 5.955556-5.955556 13.819259-8.936296 21.688889-8.936296 7.751111 0 15.502222 2.891852 21.434074 8.693333l79.277037 79.271111c5.706667 5.700741 8.983704 13.588148 8.989629 21.647408 0.017778 8.088889-3.247407 16.005926-8.965926 21.73037z"  horiz-adv-x="1024" />

    
    <glyph glyph-name="ziyuan" unicode="&#58900;" d="M1212.517684 454.602247V457.162135A438.837865 438.837865 0 0 1 360.075131 603.441423 365.698221 365.698221 0 0 1 371.411775-127.955019h804.536087a292.558577 292.558577 0 0 1 36.569822 582.557266z"  horiz-adv-x="1468" />

    
    <glyph glyph-name="Addtianjia9" unicode="&#59165;" d="M866.2 839.5H157.8c-51.8 0-93.8-42-93.8-93.8v-723.5c0-51.8 42-93.8 93.8-93.8h708.4c51.8 0 93.8 42 93.8 93.8V745.7c0 51.9-42 93.8-93.8 93.8zM750.3 311.7H575.6V137c0-35.1-28.4-63.5-63.5-63.5S448.6 102 448.6 137V311.7H273.8c-35.1 0-63.5 28.5-63.5 63.5 0 35.1 28.4 63.5 63.5 63.5h174.7V613.5c0 35.1 28.4 63.5 63.5 63.5s63.5-28.5 63.5-63.5v-174.7h174.7c35.1 0 63.5-28.5 63.5-63.5s-28.3-63.6-63.4-63.6z"  horiz-adv-x="1024" />

    
    <glyph glyph-name="wenduji" unicode="&#59033;" d="M512 384m-485 0a485 485 0 1 1 970 0 485 485 0 1 1-970 0ZM558.295 380.66V659.492h-92.59v-44.665H525v-34.498h-59.295v-37.498H525v-34.498h-59.295V380.66C411.138 361.546 372 309.602 372 248.507c0-77.32 62.68-140 140-140 77.318 0 140 62.68 140 140 0 61.095-39.139 113.038-93.705 132.153z"  horiz-adv-x="1024" />

    
    <glyph glyph-name="cefengji" unicode="&#58963;" d="M940.44 493.53c-10.68 0-19.33-8.65-19.33-19.33v-70.87h-302.8V664.26c0 10.67-8.65 19.33-19.33 19.33-10.68 0-19.33-8.65-19.33-19.33v-260.93H463.68V664.26c0 10.67-8.65 19.33-19.33 19.33-10.68 0-19.33-8.65-19.33-19.33v-260.93H102.89V474.2c0 10.67-8.65 19.33-19.33 19.33s-19.33-8.65-19.33-19.33v-180.4c0-10.67 8.65-19.33 19.33-19.33s19.33 8.65 19.33 19.33v70.87h322.14v-260.93c0-10.67 8.65-19.33 19.33-19.33 10.68 0 19.33 8.65 19.33 19.33V364.67h115.97v-260.93c0-10.67 8.65-19.33 19.33-19.33 10.68 0 19.33 8.65 19.33 19.33V364.67h302.81v-70.87c0-10.67 8.65-19.33 19.33-19.33s19.33 8.65 19.33 19.33V474.2c-0.02 10.67-8.67 19.33-19.35 19.33z"  horiz-adv-x="1024" />

    
    <glyph glyph-name="daochuixian" unicode="&#58964;" d="M624.76 831.67H399.24c-7.47 0-13.53-6.06-13.53-13.53v-166.89c0-7.47 6.06-13.53 13.53-13.53h103.71v-620.73l-40.76-77.34c-0.37-0.7-0.34-1.54 0.06-2.22a2.27 2.27 0 0 1 1.93-1.09h104.59a2.253 2.253 0 0 1 1.99 3.31L530 16.99V637.72h94.75c7.47 0 13.53 6.06 13.53 13.53V818.14c0.01 7.47-6.04 13.53-13.52 13.53z m-13.53-166.89H412.77V804.6h198.46v-139.82z"  horiz-adv-x="1024" />

    
    <glyph glyph-name="gangjinji" unicode="&#58965;" d="M946.69 397.31H711.6v26.61c0 4.88-3.99 8.87-8.87 8.87H321.27c-4.88 0-8.87-3.99-8.87-8.87v-26.61H77.31C69.96 397.31 64 391.35 64 384s5.96-13.31 13.31-13.31H312.4v-26.61c0-4.88 3.99-8.87 8.87-8.87h381.47c4.88 0 8.87 3.99 8.87 8.87v26.61H946.7c7.35 0 13.31 5.96 13.31 13.31s-5.97 13.31-13.32 13.31z"  horiz-adv-x="1024" />

    
    <glyph glyph-name="daochuixian2" unicode="&#58966;" d="M959.56 504.69c0 16.67-13.51 30.17-30.17 30.17H768.47V715.9c0 16.67-13.51 30.17-30.17 30.17H315.88c-16.67 0-30.17-13.51-30.17-30.17v-181.04H94.61c-16.67 0-30.17-13.5-30.17-30.17s13.5-30.17 30.17-30.17H285.7v-181.04c0-16.66 13.51-30.17 30.17-30.17h181.04V52.1c0-16.66 13.51-30.17 30.17-30.17s30.17 13.51 30.17 30.17V263.31h181.04c16.67 0 30.17 13.51 30.17 30.17V474.52h160.92c16.68 0 30.18 13.5 30.18 30.17z m-402.3-181.04V474.52h150.86v-150.86H557.26zM346.05 474.52h150.86v-150.86H346.05V474.52z m362.07 60.34H346.05V685.73h362.07v-150.87z"  horiz-adv-x="1024" />

    
    <glyph glyph-name="zhengchuixian2" unicode="&#58967;" d="M929.39 293.48H768.47V474.52c0 16.66-13.51 30.17-30.17 30.17H557.26V715.9c0 16.66-13.51 30.17-30.17 30.17s-30.17-13.51-30.17-30.17v-211.21H315.88c-16.67 0-30.17-13.51-30.17-30.17v-181.04H94.61c-16.67 0-30.17-13.51-30.17-30.17s13.5-30.17 30.17-30.17H285.7V52.1c0-16.67 13.51-30.17 30.17-30.17h422.42c16.67 0 30.17 13.51 30.17 30.17V233.14h160.92c16.67 0 30.17 13.51 30.17 30.17s-13.49 30.17-30.16 30.17zM708.12 444.35v-150.86H557.26V444.35h150.86z m-362.07 0h150.86v-150.86H346.05V444.35z m362.07-362.08H346.05V233.14h362.07v-150.87z"  horiz-adv-x="1024" />

    
    <glyph glyph-name="zhengchuixian" unicode="&#58968;" d="M589.35 236.12h-62.56V740.07l66.53 66.53c5.33 5.33 5.33 13.97 0 19.3s-13.97 5.33-19.3 0l-60.87-60.87L450 828.18c-5.33 5.33-13.97 5.33-19.3 0s-5.33-13.97 0-19.3l68.8-68.8v-503.95h-64.84c-7.54 0-13.65-6.11-13.65-13.65v-273c0-7.54 6.11-13.65 13.65-13.65h154.7c7.54 0 13.65 6.11 13.65 13.65v273c-0.01 7.53-6.12 13.64-13.66 13.64z m-13.65-273H448.3v245.7h127.4v-245.7z"  horiz-adv-x="1024" />

    
    <glyph glyph-name="biaomianwenduji" unicode="&#58969;" d="M512 688.14c167.7 0 304.14-136.44 304.14-304.14S679.7 79.86 512 79.86 207.86 216.3 207.86 384 344.3 688.14 512 688.14m0 145.99C263.4 834.13 61.87 632.6 61.87 384S263.4-66.13 512-66.13 962.13 135.4 962.13 384 760.6 834.13 512 834.13z"  horiz-adv-x="1024" />

    
    <glyph glyph-name="liangshuiyan" unicode="&#58970;" d="M953.32 585.95a13.767 13.767 0 0 1-13.06 1.08L512 399.12 83.74 587.03a13.794 13.794 0 0 1-13.06-1.08c-3.9-2.54-6.24-6.88-6.24-11.53v-380.84c0-7.61 6.16-13.77 13.77-13.77h867.58c7.61 0 13.77 6.16 13.77 13.77V574.42c0 4.65-2.34 8.99-6.24 11.53z m-21.3-378.6H91.98V553.34l414.49-181.87c3.52-1.55 7.54-1.55 11.06 0l414.49 181.87v-345.99z"  horiz-adv-x="1024" />

    
    <glyph glyph-name="gangjinji2maoganyingliji" unicode="&#58971;" d="M938.82 403.85H629.46c-9.45 56.33-58.44 99.26-117.46 99.26s-108.01-42.93-117.46-99.26H85.18c-10.96 0-19.85-8.89-19.85-19.85s8.89-19.85 19.85-19.85h309.37c9.45-56.33 58.44-99.26 117.46-99.26s108.01 42.93 117.46 99.26h309.37c10.97 0 19.85 8.89 19.85 19.85-0.01 10.96-8.9 19.85-19.87 19.85zM512 463.41c36.93 0 68.06-25.35 76.9-59.56H435.1c8.84 34.21 39.97 59.56 76.9 59.56z m0-158.82c-36.93 0-68.06 25.35-76.9 59.56h153.8c-8.84-34.21-39.97-59.56-76.9-59.56z"  horiz-adv-x="1024" />

    
    <glyph glyph-name="liangshuiyan2" unicode="&#58972;" d="M946.42 461.49H77.58c-7.78 0-14.09-6.31-14.09-14.09s6.31-14.09 14.09-14.09h337.64l85.27-120.84c2.64-3.74 6.93-5.97 11.51-5.97s8.87 2.22 11.51 5.97l85.27 120.84h337.64c7.78 0 14.09 6.31 14.09 14.09s-6.31 14.09-14.09 14.09zM512 345.03l-62.29 88.28h124.58L512 345.03z"  horiz-adv-x="1024" />

    
    <glyph glyph-name="shuiguanshikongxiyaliyi" unicode="&#58973;" d="M301.05 392.55h-31.36v42.76c0 4.72-3.83 8.55-8.55 8.55H77.71c-3.65 2.42-8.61 1.7-11.4-1.78a8.518 8.518 0 0 1-1.84-6.04c-0.02-0.24-0.04-0.48-0.04-0.73v-102.63c0-4.72 3.83-8.55 8.55-8.55h188.15c4.72 0 8.55 3.83 8.55 8.55v42.76h31.36c4.72 0 8.55 3.83 8.55 8.55a8.54 8.54 0 0 1-8.54 8.56zM107.2 341.24H81.54v77.7l25.66-20.52v-57.18z m145.39 0H124.3v61.29c0 2.6-1.18 5.06-3.21 6.68l-21.94 17.55h153.43v-85.52zM439.8 392.55h-90.35c-4.72 0-8.55-3.83-8.55-8.55 0-4.72 3.83-8.55 8.55-8.55h90.35c4.72 0 8.55 3.83 8.55 8.55 0 4.72-3.83 8.55-8.55 8.55zM578.55 392.55H488.2c-4.72 0-8.55-3.83-8.55-8.55 0-4.72 3.83-8.55 8.55-8.55h90.35c4.72 0 8.55 3.83 8.55 8.55 0.01 4.72-3.82 8.55-8.55 8.55zM951.01 473.8H805.62c-4.72 0-8.55-3.83-8.55-8.55v-72.69h-31.36c-4.72 0-8.55-3.83-8.55-8.55 0-4.72 3.83-8.55 8.55-8.55h31.36v-72.69c0-4.72 3.83-8.55 8.55-8.55h145.39c4.72 0 8.55 3.83 8.55 8.55V465.25c0 4.72-3.83 8.55-8.55 8.55z m-8.55-162.49H814.17V456.69h128.28v-145.38zM878.32 335.54c26.76 0 48.46 21.7 48.46 48.46s-21.7 48.46-48.46 48.46-48.46-21.7-48.46-48.46c-0.01-26.76 21.69-48.46 48.46-48.46z m0 79.82c17.29 0 31.36-14.07 31.36-31.36s-14.07-31.36-31.36-31.36-31.36 14.07-31.36 31.36 14.06 31.36 31.36 31.36zM717.31 392.55h-90.35c-4.72 0-8.55-3.83-8.55-8.55 0-4.72 3.83-8.55 8.55-8.55h90.35c4.72 0 8.55 3.83 8.55 8.55 0 4.72-3.83 8.55-8.55 8.55z"  horiz-adv-x="1024" />

    
    <glyph glyph-name="cefengji2" unicode="&#58974;" d="M702.67 433.74c0 77.22-45.91 143.72-111.92 173.7V806.8c0 13.73-11.13 24.87-24.87 24.87s-24.87-11.14-24.87-24.87v-184.58c-9.46 1.44-19.15 2.19-29.01 2.19-9.86 0-19.55-0.75-29.02-2.19V806.8c0 13.73-11.13 24.87-24.87 24.87s-24.87-11.14-24.87-24.87v-199.36c-66.01-29.98-111.92-96.47-111.92-173.7s45.91-143.72 111.92-173.7V-38.799999999999955c0-13.73 11.13-24.87 24.87-24.87s24.87 11.14 24.87 24.87V245.26a192.74 192.74 0 0 1 29.02-2.19c9.86 0 19.55 0.75 29.01 2.19V-38.799999999999955c0-13.73 11.13-24.87 24.87-24.87s24.87 11.14 24.87 24.87V260.03999999999996c66.02 29.98 111.92 96.48 111.92 173.7z m-331.6 0c0 48.56 24.69 91.47 62.18 116.82v-233.64c-37.49 25.35-62.18 68.26-62.18 116.82zM512 292.80999999999995c-9.94 0-19.65 1.04-29.02 3.01V571.6600000000001c9.37 1.97 19.07 3.01 29.02 3.01 9.94 0 19.65-1.04 29.01-3.01v-275.85c-9.36-1.96-19.07-3-29.01-3z m78.76 24.11V550.56c37.49-25.35 62.18-68.26 62.18-116.82-0.01-48.56-24.7-91.47-62.18-116.82z"  horiz-adv-x="1024" />

    
    <glyph glyph-name="dian" unicode="&#58924;" d="M512 384m-447.616766 0a438 438 0 1 0 895.233533 0 438 438 0 1 0-895.233533 0Z"  horiz-adv-x="1024" />

    
    <glyph glyph-name="iconset0211" unicode="&#58990;" d="M512 554.666667c-23.466667 0-42.666667-19.2-42.666667-42.666667l21.333333-234.666667c0-12.8 8.533333-21.333333 21.333333-21.333333s21.333333 8.533333 21.333333 21.333333l21.333333 234.666667C554.666667 535.466667 535.466667 554.666667 512 554.666667zM512 213.333333c-23.466667 0-42.666667-19.2-42.666667-42.666667s19.2-42.666667 42.666667-42.666667 42.666667 19.2 42.666667 42.666667S535.466667 213.333333 512 213.333333zM970.666667 128l-384 597.333333c0 0-19.2 42.666667-74.666667 42.666667-51.2 0-74.666667-42.666667-74.666667-42.666667l-384-597.333333c0 0-10.666667-14.933333-10.666667-42.666667 0-46.933333 38.4-85.333333 85.333333-85.333333l768 0c46.933333 0 85.333333 38.4 85.333333 85.333333C981.333333 115.2 970.666667 128 970.666667 128zM896 42.666667 128 42.666667c-23.466667 0-42.666667 19.2-42.666667 42.666667 0 8.533333 2.133333 14.933333 2.133333 17.066667 0 0 0 0 2.133333 2.133333l384 597.333333c0 0 2.133333 2.133333 2.133333 2.133333 0 0 12.8 21.333333 36.266667 21.333333 25.6 0 34.133333-17.066667 36.266667-19.2 0-2.133333 2.133333-2.133333 2.133333-6.4l384-597.333333c0 0 2.133333-2.133333 2.133333-2.133333 0-2.133333 2.133333-6.4 2.133333-17.066667C938.666667 61.866667 919.466667 42.666667 896 42.666667z"  horiz-adv-x="1024" />

    
    <glyph glyph-name="dingwei" unicode="&#58910;" d="M512-63.469288c-10.69969 0-16.60519 1.283226-20.36584 5.689582-2.261507 2.64934-229.644237 272.535093-290.237267 403.232784-21.890566 46.818305-33.44267 97.655134-33.44267 147.265018 0 187.090049 154.331971 339.226005 344.045777 339.226005s344.045777-153.187915 344.045777-341.429183c0-56.871265-10.660804-99.841939-36.789904-148.300604C747.006362 208.324932 534.795169-54.618713 532.675902-57.24247c-2.532683-3.166109-7.055696-6.227842-20.145829-6.227842L512-63.470311zM512 623.596913c-72.959685 0-132.325771-59.365062-132.325771-132.325771S439.040315 358.945371 512 358.945371s132.325771 59.365062 132.325771 132.325771S584.959685 623.596913 512 623.596913z"  horiz-adv-x="1024" />

    
    <glyph glyph-name="shuiwenzhan" unicode="&#58888;" d="M0-38.4L659.2 832 1024 428.8 0-38.4z"  horiz-adv-x="1024" />

    
    <glyph glyph-name="xiaoxingshuiku" unicode="&#59278;" d="M817.664 268.79999999999995a307.2 307.2 0 0 0-611.328 0H51.2v51.2h154.35264A307.13856 307.13856 0 0 0 486.4 605.57312V775.6800000000001h51.2v-170.10688a307.13344 307.13344 0 0 0 280.84224-285.57312H972.8v-51.2h-155.136z m-305.664 286.72a255.95392 255.95392 0 0 1-182.75328-435.2h365.50656A255.9488 255.9488 0 0 1 512 555.52z m8.704-205.51168q103.168-38.4 103.19872-93.59872-4.8384-93.60384-119.99744-96-103.2192 4.77696-122.40384 57.6 2.36544 23.9616 21.60128 26.39872 9.56416 0 28.8-14.40256 38.36416-26.43456 74.40384-26.39872 57.6 2.36544 62.39744 43.20256 0 28.8-74.39872 59.99616-98.43712 40.7808-98.40128 91.20256 7.19872 86.4 110.40256 93.59872 98.3808-9.62048 107.99616-57.6-2.41664-24.01792-23.99744-24.00256c-6.41536 0-14.40256 3.97312-24.00256 12.00128a98.74944 98.74944 0 0 1-59.99616 21.60128q-55.23968-2.41664-57.6-40.80128 0.00512-24.01792 71.99744-52.79744z"  horiz-adv-x="1024" />

    
    <glyph glyph-name="dazhongxingshuiku" unicode="&#59287;" d="M817.62816 268.79999999999995c-0.512-5.39136-1.15712-10.752-1.96608-16.06144q-1.16736-7.62368-2.70336-15.1296-3.072-14.99648-7.57248-29.44a307.6096 307.6096 0 0 0-109.568-154.81856q-11.8272-8.84736-24.50944-16.55808a307.52256 307.52256 0 0 0-318.58688 0q-12.66688 7.68-24.50944 16.55808a309.02272 309.02272 0 0 0-33.42336 28.94848q-5.21216 5.20704-10.17344 10.66496-9.91744 10.91072-18.77504 22.75328a306.21184 306.21184 0 0 0-47.21664 92.45184q-4.48512 14.43328-7.57248 29.44-1.536 7.49568-2.70336 15.1296a311.84896 311.84896 0 0 0-1.9712 16.06144H51.2v51.2h154.43968A307.09248 307.09248 0 0 0 486.4 605.5833600000001V775.6800000000001h51.2v-170.09152a307.15392 307.15392 0 0 0 280.84224-285.58848H972.8v-51.2h-155.17184zM512 555.52a255.96416 255.96416 0 0 1-255.10912-235.52h510.22336A255.96416 255.96416 0 0 1 512 555.52z"  horiz-adv-x="1024" />

    
    <glyph glyph-name="xiajiantou" unicode="&#59218;" d="M578.135828 10.81155l204.947378 355.088603c11.329675 19.435459 12.066565 44.213367 0 65.122605-12.066565 20.817127-33.896915 32.515247-56.464154 32.515247h-89.71629V738.674103c0 31.96258-25.975353 57.937933-57.937933 57.937933H445.035171c-32.054691 0-57.937933-25.975353-57.937933-57.937933v-275.043987h-83.45273c-24.685797 0-48.634704-12.803454-61.898713-35.739138-13.171899-22.843573-12.342898-50.016371 0-71.386166L441.166502 10.81155c13.632455-23.580462 39.239363-39.515697 68.438607-39.515697s54.898264 15.935234 68.530719 39.515697z"  horiz-adv-x="1024" />

    
    <glyph glyph-name="shangjiantou" unicode="&#59224;" d="M445.956283 757.18845L240.916794 402.099847c-11.329675-19.52757-12.066565-44.213367 0-65.122605 12.066565-20.909238 33.896915-32.607358 56.464154-32.607358h89.71629v-275.043987c0-31.96258 25.975353-57.937933 57.937933-57.937933h134.021769c32.054691 0 57.937933 25.975353 57.937933 57.937933V304.369884h83.45273c24.685797 0 48.634704 12.803454 61.806602 35.739138 13.171899 22.843573 12.342898 50.016371 0 71.386166L582.833498 757.18845c-13.632455 23.580462-39.239363 39.515697-68.438607 39.515697-29.199244 0-54.898264-15.935234-68.438608-39.515697z"  horiz-adv-x="1024" />

    
    <glyph glyph-name="--xinpingbidianlan" unicode="&#58956;" d="M64 407.17h896v-46.34H64zM504.28 723.86h46.34v-679.72h-46.34zM527.45 217.5v333L755.75 384z"  horiz-adv-x="1024" />

    
    <glyph glyph-name="--ceyaguan" unicode="&#58957;" d="M836.52 27.61H187.48v25.85c0 178.94 145.59 324.51 324.52 324.51S836.52 232.4 836.52 53.46v-25.85z m-596.14 51.7h543.24C770.56 217.66 653.72 326.28 512 326.28S253.44 217.66 240.38 79.31zM486.15 740.39h51.69v-686.93h-51.69zM64 79.31h896v-51.69H64z"  horiz-adv-x="1024" />

    
    <glyph glyph-name="--liangshuiyanji" unicode="&#58958;" d="M960 82.47H64V685.53h208.48L512 409.11l239.56 276.41H960v-603.05z m-837.64 58.36h779.28V627.17H778.23L512 320.02 245.81 627.17H122.36v-486.34z"  horiz-adv-x="1024" />

    
    <glyph glyph-name="--shenyaji" unicode="&#58959;" d="M923.11 421.24H494.13V653.61c0 19.74-16 35.75-35.75 35.75H100.89c-19.75 0-35.75-16.01-35.75-35.75s16-35.75 35.75-35.75h321.74v-196.62H220.05c-19.75 0-35.75-16.01-35.75-35.75s16-35.75 35.75-35.75h202.58v-199.6H100.89c-19.75 0-35.75-16.01-35.75-35.75s16-35.75 35.75-35.75h357.49c19.75 0 35.75 16.01 35.75 35.75 0 0.51-0.13 0.98-0.15 1.49 0.02 0.5 0.15 0.98 0.15 1.49V349.74h428.99c19.75 0 35.75 16.01 35.75 35.75s-16.01 35.75-35.76 35.75z"  horiz-adv-x="1024" />

    
    <glyph glyph-name="--shuxiangweiyidongbiaodian" unicode="&#58960;" d="M512 832C264.97 832 64 631.03 64 384s200.97-448 448-448 448 200.97 448 448S759.03 832 512 832z m271.71-721.14C625.15 152.1 512 258.65 512 384c0-125.35-113.15-231.9-271.71-273.14C170.07 180.72 126.51 277.35 126.51 384s43.56 203.28 113.78 273.14C398.85 615.9 512 509.35 512 384c0 125.35 113.15 231.9 271.71 273.14C853.93 587.28 897.49 490.65 897.49 384s-43.56-203.28-113.78-273.14z"  horiz-adv-x="1024" />

    
    <glyph glyph-name="--shuipingweiyigongzuojidian" unicode="&#58961;" d="M960-64H64V832h896v-896z m-833.49 62.51h770.98V769.49H126.51v-770.98zM512 384m-166.7 0a166.7 166.7 0 1 1 333.4 0 166.7 166.7 0 1 1-333.4 0Z"  horiz-adv-x="1024" />

    
    <glyph glyph-name="--shuipingweiyixiaohejidian" unicode="&#58962;" d="M64 832v-896h896V832H64z m541.69-310.11c-26.7 18.18-58.95 28.81-93.69 28.81s-66.99-10.63-93.69-28.81l-247.6 247.6h682.58l-247.6-247.6z m-231.58-44.2c-18.18-26.7-28.81-58.95-28.81-93.69s10.63-66.99 28.81-93.69l-247.6-247.6V725.29l247.6-247.6z m44.2-231.58c26.7-18.18 58.95-28.81 93.69-28.81s66.99 10.63 93.69 28.81l247.6-247.6H170.71l247.6 247.6z m231.58 44.2c18.18 26.7 28.81 58.95 28.81 93.69s-10.63 66.99-28.81 93.69l247.6 247.6v-682.58l-247.6 247.6z"  horiz-adv-x="1024" />

    
    <glyph glyph-name="chukuliuliang-" unicode="&#58954;" d="M773.33 784.67c39.71 0 77.04-15.46 105.12-43.54S922 675.71 922 636v-504c0-39.71-15.46-77.04-43.54-105.12s-65.41-43.54-105.12-43.54H250.67c-39.71 0-77.05 15.46-105.12 43.54C117.46 54.96 102 92.29 102 132V636c0 39.71 15.46 77.04 43.54 105.12s65.41 43.54 105.12 43.54h522.67m0 38.01H250.67C147.57 822.67 64 739.09 64 636v-504c0-103.09 83.57-186.67 186.67-186.67h522.67C876.43-54.67 960 28.91 960 132V636c0 103.09-83.57 186.67-186.67 186.67zM738.64 144H285.36c-26.25 0-47.53 21.57-47.53 48.16V599.92c0 13.3 10.64 24.08 23.77 24.08 13.12 0 23.76-10.78 23.76-24.08v-407.76h453.28V360.73c0 13.3 10.64 24.08 23.76 24.08 13.13 0 23.76-10.78 23.76-24.08v-168.57c0.01-26.59-21.27-48.16-47.52-48.16zM497.95 532.18H355.37c-13.12 0-23.76 10.78-23.76 24.08 0 13.3 10.64 24.08 23.76 24.08h142.58c13.13 0 23.77-10.78 23.77-24.08-0.01-13.3-10.64-24.08-23.77-24.08zM450.42 435.86h-95.05c-13.12 0-23.76 10.78-23.76 24.08 0 13.3 10.64 24.08 23.76 24.08h95.05c13.12 0 23.77-10.78 23.77-24.08 0-13.3-10.65-24.08-23.77-24.08zM666.07 240.33h-310.7c-13.12 0-23.76 10.78-23.76 24.08 0 13.3 10.65 24.08 23.76 24.08h310.7c13.12 0 23.76-10.78 23.76-24.08 0-13.3-10.64-24.08-23.76-24.08zM379.13 336.65h-23.77c-13.12 0-23.76 10.78-23.76 24.08 0 13.3 10.65 24.08 23.76 24.08h23.77c13.12 0 23.76-10.78 23.76-24.08 0-13.3-10.64-24.08-23.76-24.08zM684.88 501.6c-19.58 25.44-44.93 55.96-61.5 74.79a14.681 14.681 0 0 1-9.54 4.32l-1.5 0.76c-4.32 0.06-8.44-1.8-11.3-5.09-16.82-19.33-41.67-50.87-60.24-74.79-36.39-46.04-39.66-104.79 0-144.48 40.02-39.75 104.07-39.75 144.08 0 37.36 40.73 37.36 103.78 0 144.49z m-9.33-66.32c0-0.03 0-0.06-0.01-0.1-0.06-1.33-0.34-2.65-0.86-3.92-0.82-1.99-2.07-3.68-3.63-4.95l-40.99-41.17c-4.42-4.48-12.17-4.48-16.59 0s-4.42 12.33 0 16.81l21.55 21.83H561.4c-6.64 0-11.8 5.23-11.8 11.96 0 0.03 0.01 0.07 0.01 0.1s-0.01 0.07-0.01 0.1c0 6.73 5.16 11.96 11.8 11.96h73.63l-21.55 21.83c-4.42 4.48-4.42 12.33 0 16.81 4.42 4.48 12.17 4.48 16.59 0l40.99-41.17c1.56-1.27 2.81-2.96 3.63-4.94 0.52-1.27 0.8-2.59 0.86-3.92 0-0.03 0.01-0.07 0.01-0.1 0.01-0.19 0.01-0.38 0.01-0.58s-0.01-0.36-0.02-0.55z"  horiz-adv-x="1024" />

    
    <glyph glyph-name="yubaohongfengliuliang-" unicode="&#58955;" d="M773.33 784.67c39.71 0 77.04-15.46 105.12-43.54S922 675.71 922 636v-504c0-39.71-15.46-77.04-43.54-105.12s-65.41-43.54-105.12-43.54H250.67c-39.71 0-77.05 15.46-105.12 43.54C117.46 54.96 102 92.29 102 132V636c0 39.71 15.46 77.04 43.54 105.12s65.41 43.54 105.12 43.54h522.67m0 38.01H250.67C147.57 822.67 64 739.09 64 636v-504c0-103.09 83.57-186.67 186.67-186.67h522.67C876.43-54.67 960 28.91 960 132V636c0 103.09-83.57 186.67-186.67 186.67zM276.51 127.33c0-12.91-10.39-23.33-23.26-23.33-12.87 0-23.26 10.42-23.26 23.33V640.67c0 12.9 10.39 23.33 23.26 23.33 12.87 0 23.26-10.43 23.26-23.33v-513.34z m0 0M253.26 104c-12.87 0-23.26 10.42-23.26 23.33 0 12.91 10.39 23.34 23.26 23.34h517.48c12.86 0 23.26-10.43 23.26-23.34S783.61 104 770.74 104H253.26z m0 0M744.21 378.17c0 12.9-10.39 23.33-23.26 23.33-4.69 0-9.28-1.42-13.15-4.08-15.05-5.62-24.13-6.76-40.56-6.93-93.65-0.94-116 85.31-187.15 85.31-83.9 0-135.35-63.95-162.96-97.42-4.94-4.3-8.14-10.65-8.14-17.72 0-12.91 10.39-23.33 23.26-23.33 7.19 0 13.59 3.28 17.88 8.38 22.17 25.3 65.68 85.98 131.35 84.21 28.41-0.76 77.18-77.87 185.77-81.01 19.47-0.56 42.66 2.92 57.56 6.2 10.97 1.91 19.4 11.46 19.4 23.06z m0 0M439.1 305.39c0-25.77 20.82-46.66 46.52-46.66 25.69 0 46.52 20.89 46.52 46.66s-20.82 46.67-46.52 46.67c-25.7 0-46.52-20.9-46.52-46.67zM309 493.01c0-18.52 14.97-33.54 33.43-33.54s33.43 15.02 33.43 33.54c0 18.53-14.97 33.54-33.43 33.54S309 511.53 309 493.01z m185.56 56.88c0-12.89 10.41-23.34 23.26-23.34 12.84 0 23.25 10.45 23.25 23.34s-10.41 23.33-23.25 23.33c-12.85 0-23.26-10.45-23.26-23.33z m197.46-283.87c0-12.89 10.42-23.33 23.26-23.33 12.84 0 23.26 10.44 23.26 23.33s-10.42 23.33-23.26 23.33c-12.84 0-23.26-10.44-23.26-23.33z m-79.94 193.45c0-18.53 14.97-33.54 33.43-33.54 18.47 0 33.44 15.02 33.44 33.54s-14.97 33.54-33.44 33.54c-18.46 0-33.43-15.01-33.43-33.54z m0 0"  horiz-adv-x="1024" />

    
    <glyph glyph-name="rukuliuliang-" unicode="&#58952;" d="M773.33 784.67c39.71 0 77.04-15.46 105.12-43.54S922 675.71 922 636v-504c0-39.71-15.46-77.04-43.54-105.12s-65.41-43.54-105.12-43.54H250.67c-39.71 0-77.05 15.46-105.12 43.54C117.46 54.96 102 92.29 102 132V636c0 39.71 15.46 77.04 43.54 105.12s65.41 43.54 105.12 43.54h522.67m0 38.01H250.67C147.57 822.67 64 739.09 64 636v-504c0-103.09 83.57-186.67 186.67-186.67h522.67C876.43-54.67 960 28.91 960 132V636c0 103.09-83.57 186.67-186.67 186.67zM280.54 144c-26.81 0-48.54 21.57-48.54 48.17V360.73c0 13.3 10.87 24.08 24.27 24.08s24.27-10.78 24.27-24.08v-168.57h462.93V599.92c0 13.3 10.86 24.08 24.26 24.08 13.41 0 24.27-10.78 24.27-24.08v-407.75c0-26.6-21.73-48.17-48.54-48.17H280.54zM526.35 532.18c-13.4 0-24.27 10.78-24.27 24.08 0 13.3 10.87 24.08 24.27 24.08h145.61c13.4 0 24.27-10.78 24.27-24.08 0-13.3-10.87-24.08-24.27-24.08H526.35zM574.89 435.86c-13.4 0-24.27 10.78-24.27 24.08 0 13.3 10.87 24.08 24.27 24.08h97.08c13.4 0 24.27-10.78 24.27-24.08 0-13.3-10.87-24.08-24.27-24.08h-97.08zM354.66 240.33c-13.4 0-24.27 10.78-24.27 24.08 0 13.3 10.87 24.08 24.27 24.08h317.31c13.4 0 24.27-10.78 24.27-24.08 0-13.3-10.87-24.08-24.27-24.08H354.66zM647.69 336.65c-13.4 0-24.27 10.78-24.27 24.08 0 13.3 10.87 24.08 24.27 24.08h24.27c13.4 0 24.27-10.78 24.27-24.08 0-13.3-10.87-24.08-24.27-24.08h-24.27zM482.6 501.6c-18.97 23.91-44.35 55.45-61.53 74.79a15.204 15.204 0 0 1-11.54 5.09l-1.54-0.77c-3.67-0.22-7.13-1.76-9.74-4.32-16.92-18.82-42.81-49.35-62.81-74.79-38.17-40.72-38.17-103.76 0-144.48 40.87-39.75 106.28-39.75 147.15 0 40.51 39.69 37.18 98.44 0.01 144.48z m-9.01-66.32c0-0.03-0.01-0.07-0.01-0.1-0.07-1.33-0.35-2.65-0.88-3.92-0.84-1.99-2.11-3.68-3.71-4.95l-41.86-41.17c-4.52-4.48-12.42-4.48-16.95 0-4.52 4.48-4.52 12.33 0 16.81l22.01 21.83H357c-6.78 0-12.05 5.23-12.05 11.96 0 0.04 0.01 0.07 0.01 0.11s-0.01 0.07-0.01 0.1c0 6.73 5.27 11.96 12.05 11.96h75.19l-22.01 21.83c-4.52 4.48-4.52 12.33 0 16.81 4.52 4.48 12.43 4.48 16.95 0L469 445.39c1.59-1.27 2.87-2.96 3.71-4.94 0.53-1.27 0.81-2.59 0.88-3.92 0-0.03 0-0.07 0.01-0.1a11.235 11.235 0 0 0-0.01-1.15z"  horiz-adv-x="1024" />

    
    <glyph glyph-name="jinriyuliang-" unicode="&#58953;" d="M773.33 784.67c39.71 0 77.04-15.46 105.12-43.54S922 675.71 922 636v-504c0-39.71-15.46-77.04-43.54-105.12s-65.41-43.54-105.12-43.54H250.67c-39.71 0-77.05 15.46-105.12 43.54C117.46 54.96 102 92.29 102 132V636c0 39.71 15.46 77.04 43.54 105.12s65.41 43.54 105.12 43.54h522.67m0 38.01H250.67C147.57 822.67 64 739.09 64 636v-504c0-103.09 83.57-186.67 186.67-186.67h522.67C876.43-54.67 960 28.91 960 132V636c0 103.09-83.57 186.67-186.67 186.67zM766.45 152H461.11c-14.02 0-25.44 11.58-25.44 25.78 0 14.2 11.43 25.78 25.44 25.78h305.34c14.01 0 25.45-11.58 25.45-25.78-0.01-14.2-11.44-25.78-25.45-25.78zM359.33 152H257.55c-14.01 0-25.44 11.58-25.44 25.78 0 14.2 11.43 25.78 25.44 25.78h101.78c14.02 0 25.44-11.58 25.44-25.78 0-14.2-11.42-25.78-25.44-25.78zM766.45 564.44H664.67c-14.01 0-25.45 11.58-25.45 25.78 0 14.2 11.43 25.78 25.45 25.78h101.78c14.01 0 25.45-11.58 25.45-25.78-0.01-14.19-11.44-25.78-25.45-25.78zM562.89 564.44H257.55c-14.01 0-25.44 11.58-25.44 25.78 0 14.2 11.43 25.78 25.44 25.78h305.34c14.01 0 25.44-11.58 25.44-25.78 0-14.19-11.43-25.78-25.44-25.78zM766.45 461.33H461.11c-14.02 0-25.44 11.58-25.44 25.78 0 14.2 11.43 25.77 25.44 25.77h305.34c14.01 0 25.45-11.58 25.45-25.77-0.01-14.2-11.44-25.78-25.45-25.78zM766.45 358.22H562.89c-14.02 0-25.44 11.58-25.44 25.78 0 14.2 11.43 25.78 25.44 25.78h203.56c14.01 0 25.45-11.58 25.45-25.78-0.01-14.2-11.44-25.78-25.45-25.78zM766.45 255.11H562.89c-14.02 0-25.44 11.58-25.44 25.78 0 14.2 11.43 25.78 25.44 25.78h203.56c14.01 0 25.45-11.58 25.45-25.78-0.01-14.2-11.44-25.78-25.45-25.78zM429.79 394.53c-9.46 35.08-41.04 59.32-76.93 59.07-29.16-0.13-55.96-16.25-70.04-42.12-29.27-4.28-50.93-29.81-50.72-59.77 0.09-8.67 3.58-16.94 9.69-23.01 6.11-6.06 14.36-9.42 22.91-9.32h9.49v-25.52c0.69-5.5 5.31-9.63 10.78-9.63s10.09 4.13 10.78 9.63v25.52h54.86v-25.52c0-5.98 4.79-10.83 10.69-10.83 5.91 0 10.7 4.85 10.7 10.83v25.52h55.03v-25.52c0-5.98 4.79-10.83 10.69-10.83 5.91 0 10.7 4.85 10.7 10.83v25.52h17.25c4.07 0 7.98 1.64 10.86 4.55 2.88 2.92 4.5 6.87 4.5 11-0.06 30.02-21.9 55.42-51.24 59.6z m-107.62-98.04c-6.47 0-11.73-5.32-11.73-11.88v-27.97c0-6.56 5.25-11.88 11.73-11.88s11.73 5.32 11.73 11.88v27.97c0 3.15-1.24 6.17-3.43 8.4a11.68 11.68 0 0 1-8.3 3.48z m78.46 0c-3.12 0.05-6.14-1.18-8.35-3.42a11.78 11.78 0 0 1-3.38-8.46v-27.97c0-3.15 1.23-6.17 3.43-8.4a11.64 11.64 0 0 1 8.29-3.48c3.11 0 6.09 1.25 8.29 3.48 2.2 2.23 3.43 5.25 3.43 8.4v27.97c0 3.15-1.24 6.17-3.43 8.4a11.6 11.6 0 0 1-8.28 3.48z m0 0"  horiz-adv-x="1024" />

    
    <glyph glyph-name="dangqiankurong-" unicode="&#58950;" d="M773.33 784.67c39.71 0 77.04-15.46 105.12-43.54S922 675.71 922 636v-504c0-39.71-15.46-77.04-43.54-105.12s-65.41-43.54-105.12-43.54H250.67c-39.71 0-77.05 15.46-105.12 43.54C117.46 54.96 102 92.29 102 132V636c0 39.71 15.46 77.04 43.54 105.12s65.41 43.54 105.12 43.54h522.67m0 38.01H250.67C147.57 822.67 64 739.09 64 636v-504c0-103.09 83.57-186.67 186.67-186.67h522.67C876.43-54.67 960 28.91 960 132V636c0 103.09-83.57 186.67-186.67 186.67zM774.31 353.64H699c-10.42 80.2-76.72 143.89-161.31 154.88v81.85c0 13.38-11.56 24.33-25.69 24.33s-25.69-10.95-25.69-24.33v-81.86c-84.58-10.99-150.86-74.68-161.27-154.87h-75.35c-14.13 0-25.69-10.95-25.69-24.33 0-5.52 1.97-10.62 5.28-14.72v-0.67h0.56c4.72-5.45 11.88-8.93 19.86-8.93h75.95l0.06-0.4a169.66 169.66 0 0 1 6.31-25.89c6.36-19.33 16.15-37.5 28.97-53.71 3.63-4.59 7.46-9 11.52-13.22 2.03-2.11 4.11-4.18 6.24-6.2a186.85 186.85 0 0 1 20.51-16.82c4.84-3.44 9.85-6.65 15.04-9.62 60.08-34.45 135.39-34.45 195.47 0 5.19 2.99 10.2 6.19 15.04 9.62 31.85 22.53 55.38 54 67.22 89.94 1.84 5.59 3.39 11.3 4.64 17.1 0.63 2.91 1.18 5.84 1.66 8.79l0.06 0.4h75.94c7.97 0 15.13 3.49 19.85 8.93h0.56v0.67c3.3 4.1 5.28 9.2 5.28 14.72-0.02 13.39-11.58 24.34-25.71 24.34z m-270.74 21.52z m157.87 1.07s0 1.92-2.03 1.92c-34.49 13.45-72.53 21.61-101.95 15.85-43.61-8.16-63.56-24.33-82.2-38.11 8.45 6.24 17.16 12.97 28.22 19.23-11.24-6.36-20.06-13.21-28.64-19.54-0.13-0.1-0.26-0.19-0.39-0.29-0.48-0.36-0.97-0.71-1.46-1.07l-1.89-1.38-0.63-0.45c-0.69-0.49-1.37-0.98-2.07-1.46-0.17-0.12-0.34-0.24-0.51-0.35-0.77-0.54-1.55-1.07-2.33-1.59-0.1-0.07-0.2-0.14-0.3-0.2-0.83-0.55-1.66-1.09-2.49-1.63-0.12-0.07-0.24-0.15-0.35-0.22-0.8-0.51-1.61-1-2.42-1.49-0.12-0.07-0.23-0.14-0.35-0.21-0.88-0.52-1.76-1.03-2.65-1.53-0.03-0.02-0.06-0.04-0.09-0.05 0.03 0.02 0.06 0.04 0.09 0.05-0.03-0.02-0.06-0.03-0.09-0.05-12.48-6.92-27.22-11.62-49.57-11.62-18.89 0-37.28 3.7-51.85 11.53v0.09 0.01c6.54 77.25 74.66 136.8 156.52 136.81 71.36-0.01 132.28-45.26 151.06-108.06-0.54 1.27-1.08 2.54-1.63 3.81z"  horiz-adv-x="1024" />

    
    <glyph glyph-name="kushuiwei-" unicode="&#58951;" d="M417.51 280.94l15.44 13.66c3.77 3.49 9.66 3.49 13.43 0l11.94-10.48c11.85-11.04 30.45-11.04 42.3 0l11.94 10.48c3.76 3.49 9.66 3.49 13.43 0l11.94-10.48v0.03c5.76-5.23 13.3-8.17 21.15-8.26 7.84 0.07 15.36 3.02 21.09 8.26l11.9 10.48c3.77 3.51 9.7 3.51 13.46 0l11.94-10.48c11.83-11.05 30.44-11.05 42.27 0l11.97 10.48c3.77 3.49 9.67 3.49 13.43 0l11.94-10.48c5.25-4.64 12.78-3.5 16.74 2.67 3.98 6.25 3.02 14.37-2.3 19.57l-11.91 10.48c-11.86 11-30.44 11-42.3 0l-11.94-10.48c-3.76-3.5-9.67-3.5-13.43 0L620 316.86c-11.86 11.02-30.45 11.02-42.3 0l-11.94-10.48c-3.76-3.5-9.66-3.5-13.43 0l-11.94 10.48c-11.85 11.02-30.45 11.02-42.3 0l-11.9-10.48c-3.77-3.5-9.7-3.5-13.5 0l-11.91 10.45c-11.86 11-30.44 11-42.3 0l-15.44-13.66c-5.29-5.22-6.23-13.32-2.27-19.57 3.99-6.13 11.48-7.33 16.74-2.66z m0 79.25l15.44 13.66c3.77 3.49 9.66 3.49 13.43 0l11.94-10.48c11.85-11.04 30.45-11.04 42.3 0l11.94 10.48c3.76 3.49 9.66 3.49 13.43 0l11.94-10.48c5.77-5.22 13.3-8.16 21.15-8.26 7.84 0.07 15.36 3.02 21.09 8.26l11.9 10.48c3.77 3.51 9.7 3.51 13.46 0l11.94-10.48c11.84-11.02 30.42-11.02 42.27 0l11.97 10.48c3.77 3.49 9.67 3.49 13.43 0l11.94-10.48c5.25-4.64 12.78-3.46 16.74 2.67 3.98 6.25 3.02 14.37-2.3 19.57l-11.91 10.48c-11.85 11.02-30.45 11.02-42.3 0l-11.94-10.48c-3.76-3.49-9.67-3.49-13.43 0L620 396.09c-11.85 11.04-30.45 11.04-42.3 0l-11.94-10.48c-3.76-3.49-9.66-3.49-13.43 0l-11.94 10.48c-11.85 11.04-30.45 11.04-42.3 0l-11.9-10.48c-3.77-3.49-9.7-3.49-13.5 0l-11.91 10.45c-11.85 11.02-30.45 11.02-42.3 0l-15.44-13.66c-5.29-5.22-6.23-13.32-2.27-19.57 3.99-6.1 11.48-7.31 16.74-2.64z m343.76 84.47c-12.54 0-22.71-9.95-22.71-22.23v-177.89H285.42v50.69h21.48c10.02 0 18.22 8.03 18.22 17.84s-8.2 17.84-18.22 17.84h-21.48v48.06h21.48c10.02 0 18.22 8.03 18.22 17.84s-8.2 17.84-18.22 17.84h-21.48v48.06h21.48c10.02 0 18.22 8.03 18.22 17.84s-8.2 17.84-18.22 17.84h-21.48v48.06h21.48c10.02 0 18.22 8.03 18.22 17.84s-8.2 17.84-18.22 17.84h-21.48v30.28c0 12.28-10.17 22.24-22.71 22.24-12.54 0-22.71-9.96-22.71-22.24v-456.84c0-5.9 2.39-11.55 6.65-15.72s10.04-6.51 16.06-6.51h498.57c6.03-0.02 11.81 2.32 16.08 6.49 4.26 4.18 6.65 9.84 6.63 15.74V422.42c-0.01 12.28-10.17 22.24-22.72 22.24zM773.33 784.67c39.71 0 77.04-15.46 105.12-43.54S922 675.71 922 636v-504c0-39.71-15.46-77.04-43.54-105.12s-65.41-43.54-105.12-43.54H250.67c-39.71 0-77.05 15.46-105.12 43.54C117.46 54.96 102 92.29 102 132V636c0 39.71 15.46 77.04 43.54 105.12s65.41 43.54 105.12 43.54h522.67m0 38.01H250.67C147.57 822.67 64 739.09 64 636v-504c0-103.09 83.57-186.67 186.67-186.67h522.67C876.43-54.67 960 28.91 960 132V636c0 103.09-83.57 186.67-186.67 186.67z"  horiz-adv-x="1024" />

    
    <glyph glyph-name="yujingyubao" unicode="&#58946;" d="M512.25 832c64.78 0 117.28-52.64 117.28-117.6l0.06-15.57C760.56 649.7 847.36 524.22 847.34 384v-224c61.69 0 111.7-50.15 111.7-112s-50.01-112-111.7-112H177.16c-60.26-0.27-109.86 47.42-112.12 107.8-2.26 60.37 43.64 111.66 103.74 115.92l8.37 0.28V384c-0.01 140.22 86.78 265.7 217.76 314.83l0.05 15.57C394.97 779.36 447.47 832 512.25 832z m0-190.4c-141.88 0-256.9-115.33-256.9-257.6v-299.6l-75.34-2.8-5.42-0.11c-17.89-1.47-31.45-16.8-30.76-34.78 0.69-17.99 15.38-32.23 33.32-32.32h670.18c18.52 0 33.51 15.05 33.51 33.6s-15 33.6-33.51 33.6h-78.19V384c0.01 142.27-115.01 257.6-256.89 257.6z m0 123.2c-27.06 0.02-49.27-21.44-50.26-48.55a339.02 339.02 0 0 0 100.47 0l0.06-1.85c0 27.83-22.51 50.4-50.27 50.4z m0 0M512.25 496v-168h139.62L512.25 104V272H372.63l139.62 224z m0 0"  horiz-adv-x="1024" />

    
    <glyph glyph-name="anquanjiance" unicode="&#58947;" d="M512.01 761.27c-60.67 0-118.68-11.63-174.05-34.81-55.26-23.17-102.98-54.39-143.04-93.61-40-39.25-71.8-86.07-95.43-140.34C75.84 438.17 64 381.26 64 321.72c0-60.86 12-118.4 35.99-172.7 23.99-54.26 57.3-101.69 100.03-142.29h623.95c42.74 40.59 76.03 88.07 100.05 142.29C948.03 203.37 960 260.87 960 321.72c0 59.5-11.85 116.44-35.45 170.79-23.65 54.21-55.4 101.05-95.49 140.34-39.94 39.22-87.65 70.44-143.07 93.61-55.26 23.18-113.31 34.81-173.98 34.81m285.03-691.73H226.98c-66.03 71.37-99.04 155.41-99.04 252.22 0 68.01 17.23 130.95 51.49 188.89 34.36 57.89 81.04 103.69 140.03 137.38 59.01 33.61 123.2 50.46 192.55 50.46 69.32 0 133.5-16.85 192.52-50.46 58.93-33.73 105.68-79.49 140.02-137.38 34.32-57.91 51.52-120.88 51.52-188.89-0.04-96.81-33.06-180.85-99.03-252.22M242 339.39l-80.96 14.66 8.02 44.15 80.99-14.7-8.05-44.11m532.04 44.16l80.98 14.74 7.99-44.12-81.03-14.78-7.94 44.16M320.05 510.1l-53.02 61.85 35.02 28.41 52.89-61.81-34.89-28.45m383.97 0l-35 28.45 53.02 61.82L757 571.95l-52.98-61.85M489.06 667.12h45.98v-80.47h-45.98v80.47M514 319.77L376 470.84l76.97-184.48c-13.3-23.54-12.91-46.75 1.08-69.65 9.92-15.7 24.26-25.69 42.97-29.92 18.6-4.2 35.96-1.28 51.95 8.82 15.98 10.15 26.16 24.22 30.51 42.23 4.36 18.02 1.49 34.85-8.49 50.55-13.35 20.23-32.3 30.7-56.99 31.38"  horiz-adv-x="1024" />

    
    <glyph glyph-name="shipinjiankong" unicode="&#58948;" d="M717.85 87.47c6.93-19.06 18.29-42.83 38.47-67.63C808.51-44.47 904-64 904-64H139.57s98.45 23.18 151.78 88.84c15.19 18.72 24.89 36.68 31.4 52.29C201.98 145.77 120 277.77 120 429.57 120 651.83 295.45 832 512 832c216.48 0 392-180.17 392-402.43 0-144.7-74.58-271.17-186.15-342.1zM512 691.14c-140.76 0-254.81-117.07-254.81-261.58C257.19 285.06 371.24 168 512 168c140.69 0 254.74 117.07 254.74 261.57 0 144.51-114.05 261.57-254.74 261.57z m0-402.49c-75.79 0-137.19 63.17-137.19 140.92 0 77.76 61.4 140.86 137.19 140.86 75.72 0 137.19-63.1 137.19-140.86 0-77.75-61.47-140.92-137.19-140.92z m0 0"  horiz-adv-x="1024" />

    
    <glyph glyph-name="shuiyuqing" unicode="&#58949;" d="M758.21 672.69l-0.94 1.35c-10.55 14.7-27 23.49-44.57 23.79-18.92 0.2-36.63-9.67-47.02-26.2-18.72-28.31-34.21-52.18-47.6-73.18-34.92 58.8-77.19 125.13-127.17 202.16l-0.86 1.28c-13.06 18.4-33.48 29.52-55.39 30.11-23.28-0.08-45.04-12.16-58.11-32.3-29.31-44.43-55.81-85.08-79.64-122.79-10.88 26.65-29.74 57.44-57.61 100.13l-0.87 1.28c-8.04 11.38-20.85 17.97-34.37 17.69-13.53-0.29-26.08-7.41-33.68-19.12-42.49-64.38-68.27-106.61-68.27-151.03 0.1-58.5 44.87-106.21 100.82-107.44-54.65-102.85-79.21-180.24-79.21-257.79-0.08-147.67 95.24-276.76 231.9-314.07 136.67-37.31 280.18 26.58 349.17 155.43h7.2c115.89 0.13 209.79 98.31 209.92 219.47 0.42 88.69-52.15 179.41-163.7 351.23z m-591.15-47.21c0 18.59 11.74 42.31 37.81 83.35 25.85-41.33 38.3-66.03 38.3-83.35 0-22-17.05-39.83-38.08-39.83-21.04 0-38.1 17.83-38.1 39.83h0.07z m267.38-621.97c-135.58 0.12-245.48 114.99-245.64 256.74 0 116.77 71.08 243.19 241.46 501.21 0.88 1.37 2.31 2.26 3.88 2.4 1.5-0.31 2.86-1.16 3.82-2.4C608.63 498.54 680 370.7 680 260.17c-0.2-141.72-110.08-256.54-245.64-256.66h0.08z m298.28 167.3c8.02 29.1 12.09 59.23 12.1 89.52 0 80.64-29.24 163.3-89.8 273.76 15.12 24.39 33.41 52.7 57.18 88.92 102.4-158.12 145.31-236.35 145.31-302.08-0.06-75.54-53.26-139.52-124.79-150.12z m0 0M434.37 49.13c112.31 0 203.36 95.2 203.36 212.62 0 117.43-66.18 66.48-203.36 0s-203.36 0-203.36 0c-0.01-117.42 91.04-212.62 203.36-212.62z m0 0M482.54 309.63c-55.52-8.88-92.68-46.15-156.99-49.46-46.52 0-84.18 13.93-84.18 31.17 0 17.23 43.71 33.12 90.16 33.12 50.62-1.12 101.09-6.08 151.01-14.83z m0 0"  horiz-adv-x="1024" />

    
    </font>
</defs>
</svg>
